<?xml version="1.0" encoding="utf-8"?>
<!-- Generator: Adobe Illustrator 26.3.1, SVG Export Plug-In . SVG Version: 6.00 Build 0)  -->
<svg version="1.1" id="Layer_1" xmlns="http://www.w3.org/2000/svg" xmlns:xlink="http://www.w3.org/1999/xlink" x="0px" y="0px"
	 viewBox="0 0 147.3 122.1" style="enable-background:new 0 0 147.3 122.1;" xml:space="preserve">
<g>
	<g id="Group_141" transform="translate(2.778 6.946)">
		<path id="Path_98" d="M127.5,115.2H14.2c-2.4,0-4.4-2-4.4-4.4V28.9c0-2.4,2-4.4,4.4-4.4s4.4,2,4.4,4.4v77.4h104.4V28.9
			c0-2.4,2-4.4,4.4-4.4c2.4,0,4.4,2,4.4,4.4v81.8C131.9,113.2,129.9,115.2,127.5,115.2z"/>
	</g>
	<g id="Group_142">
		<path id="Path_99" d="M142.8,40.3H4.4c-2.4,0-4.4-2-4.4-4.4c0,0,0,0,0,0V4.4C0,2,2,0,4.4,0c0,0,0,0,0,0h138.4c2.4,0,4.4,2,4.4,4.4
			c0,0,0,0,0,0v31.5C147.3,38.3,145.3,40.3,142.8,40.3C142.9,40.3,142.8,40.3,142.8,40.3z M8.8,31.5h129.6V8.8H8.8V31.5z"/>
	</g>
	<g id="Group_143" transform="translate(12.501 12.501)">
		<path id="Path_100" d="M73.7,53H48.5c-2.4,0-4.4-2-4.4-4.4c0-2.4,2-4.4,4.4-4.4l0,0h25.2c2.4,0,4.4,2,4.4,4.4
			C78.1,51,76.1,53,73.7,53L73.7,53z"/>
	</g>
</g>
</svg>
