<?xml version="1.0" encoding="utf-8"?>
<!-- Generator: Adobe Illustrator 26.2.1, SVG Export Plug-In . SVG Version: 6.00 Build 0)  -->
<svg version="1.1" id="Layer_1" xmlns="http://www.w3.org/2000/svg" xmlns:xlink="http://www.w3.org/1999/xlink" x="0px" y="0px"
	 viewBox="0 0 312.25 437.08" style="enable-background:new 0 0 312.25 437.08;" xml:space="preserve">
<style type="text/css">
	.st0{clip-path:url(#SVGID_00000042721192770914748450000011152650144352475012_);}
	.st1{fill:#EA4433;}
</style>
<g id="Group_195" transform="translate(14.677 20.537) rotate(180)">
	<g>
		<defs>
			<rect id="SVGID_1_" x="-297.57" y="-416.54" width="312.36" height="437.08"/>
		</defs>
		<clipPath id="SVGID_00000056423282752799103020000001862530734889884295_">
			<use xlink:href="#SVGID_1_"  style="overflow:visible;"/>
		</clipPath>
		
			<g id="Group_163" transform="translate(0 0)" style="clip-path:url(#SVGID_00000056423282752799103020000001862530734889884295_);">
			<path id="Path_113" class="st1" d="M2.51-221.76l-229.04-184.94c-17.43-13.12-41.44-13.12-58.87,0
				c-13.12,9.44-16.1,27.73-6.66,40.85c1.85,2.56,4.09,4.81,6.66,6.66L-85.7-198.01L-285.4-36.82c-13.12,9.44-16.1,27.73-6.66,40.85
				c1.85,2.56,4.09,4.81,6.66,6.66c8.41,6.54,18.79,10.01,29.43,9.85c10.65,0.17,21.03-3.31,29.43-9.85L2.51-174.26
				c13.12-9.44,16.1-27.73,6.66-40.85C7.33-217.67,5.08-219.92,2.51-221.76"/>
		</g>
	</g>
</g>
</svg>
