<?xml version="1.0" encoding="utf-8"?>
<!-- Generator: Adobe Illustrator 26.3.1, SVG Export Plug-In . SVG Version: 6.00 Build 0)  -->
<svg version="1.1" id="Layer_1" xmlns="http://www.w3.org/2000/svg" xmlns:xlink="http://www.w3.org/1999/xlink" x="0px" y="0px"
	 viewBox="0 0 101.1 110.7" style="enable-background:new 0 0 101.1 110.7;" xml:space="preserve">
<g>
	<g>
		<path d="M97.1,28.1H3.9c-2,0-3.7-1.6-3.7-3.7s1.6-3.7,3.7-3.7h93.2c2,0,3.7,1.6,3.7,3.7S99.1,28.1,97.1,28.1z"/>
	</g>
	<g>
		<path d="M76.4,110.9H24.6c-7.7,0-14-6.3-14-14V24.4c0-2,1.6-3.7,3.7-3.7s3.7,1.6,3.7,3.7v72.5c0,3.7,3,6.7,6.7,6.7h51.8
			c3.7,0,6.7-3,6.7-6.7V24.4c0-2,1.6-3.7,3.7-3.7c2,0,3.7,1.6,3.7,3.7v72.5C90.4,104.6,84.1,110.9,76.4,110.9z M71.2,28.1
			c-2,0-3.7-1.6-3.7-3.7V14c0-3.7-3-6.7-6.7-6.7H40.1c-3.7,0-6.7,3-6.7,6.7v10.4c0,2-1.6,3.7-3.7,3.7s-3.7-1.6-3.7-3.7V14
			c0-7.7,6.3-14,14-14h20.7c7.7,0,14,6.3,14,14v10.4C74.9,26.4,73.2,28.1,71.2,28.1z"/>
	</g>
</g>
</svg>
