<?xml version="1.0" encoding="utf-8"?>
<!-- Generator: Adobe Illustrator 26.2.1, SVG Export Plug-In . SVG Version: 6.00 Build 0)  -->
<svg version="1.1" id="Layer_1" xmlns="http://www.w3.org/2000/svg" xmlns:xlink="http://www.w3.org/1999/xlink" x="0px" y="0px"
	 viewBox="0 0 233.34 239.71" style="enable-background:new 0 0 233.34 239.71;" xml:space="preserve">
<style type="text/css">
	.st0{clip-path:url(#SVGID_00000000195415004350843060000007947559364131608982_);}
	.st1{fill:#F4F4F5;}
</style>
<g id="Group_450" transform="translate(0 0)">
	<g>
		<defs>
			<rect id="SVGID_1_" y="0.27" width="233.37" height="239.44"/>
		</defs>
		<clipPath id="SVGID_00000077309512959681505490000001542209678343124379_">
			<use xlink:href="#SVGID_1_"  style="overflow:visible;"/>
		</clipPath>
		
			<g id="Group_449" transform="translate(0 0)" style="clip-path:url(#SVGID_00000077309512959681505490000001542209678343124379_);">
			<path id="Path_337" class="st1" d="M203.97,5.46h-62.91c-0.81-0.59-1.64-1.14-2.51-1.64c-6.85-3.73-14.9-4.56-22.37-2.32
				l-13.76,4.1c-4.16,0.32-8.21,1.53-11.86,3.54L21.02,29.87c-15.56,4.64-24.41,21-19.78,36.56L46.6,218.7
				c3.73,12.44,15.17,20.97,28.15,21.01c2.86,0,5.7-0.42,8.43-1.23l51.42-15.34h69.33c16.23-0.02,29.38-13.17,29.4-29.4V34.87
				C233.32,18.65,220.19,5.5,203.97,5.46 M64.93,213.28L19.57,61c-1.63-5.45,1.47-11.19,6.92-12.82l48.9-14.58
				c0,0.43-0.11,0.85-0.11,1.28v158.86c-0.02,9.34,4.42,18.13,11.95,23.67l-9.47,2.8C72.3,221.83,66.56,218.73,64.93,213.28
				 M132.61,204.08h-27.96c-5.69-0.01-10.3-4.61-10.31-10.3V34.87c0.02-5.71,4.66-10.32,10.37-10.3c0.05,0,0.1,0,0.15,0h99.1
				c5.68,0.01,10.29,4.61,10.3,10.3v158.87c-0.01,5.68-4.61,10.29-10.3,10.3h-71.36V204.08z"/>
		</g>
	</g>
</g>
</svg>
