<?xml version="1.0" encoding="utf-8"?>
<!-- Generator: Adobe Illustrator 26.2.1, SVG Export Plug-In . SVG Version: 6.00 Build 0)  -->
<svg version="1.1" id="Layer_1" xmlns="http://www.w3.org/2000/svg" xmlns:xlink="http://www.w3.org/1999/xlink" x="0px" y="0px"
	 viewBox="0 0 497.99 437.08" style="enable-background:new 0 0 497.99 437.08;" xml:space="preserve">
<style type="text/css">
	.st0{clip-path:url(#SVGID_00000154425988810213678720000011491385110289232791_);}
</style>
<g>
	<defs>
		<rect id="SVGID_1_" x="-6.4" width="510.78" height="465.72"/>
	</defs>
	<clipPath id="SVGID_00000140731660457009538220000010173148245417318572_">
		<use xlink:href="#SVGID_1_"  style="overflow:visible;"/>
	</clipPath>
	
		<g id="Group_639" transform="translate(0.461 -0.403)" style="clip-path:url(#SVGID_00000140731660457009538220000010173148245417318572_);">
		<g id="Ellipse_27">
			<circle cx="188.44" cy="406.03" r="30.05"/>
		</g>
		<g id="Ellipse_29">
			<circle cx="188.44" cy="406.03" r="30.05"/>
		</g>
		<g id="Path_1116">
			<circle cx="413.78" cy="406.03" r="30.05"/>
		</g>
		<g id="Path_1115">
			<path d="M199.66,341.02c-26.54,0-49.63-18.9-54.87-45.27l-34.48-172.25c-0.1-0.38-0.18-0.78-0.23-1.19L91.99,31.93H21.88
				c-8.3,0-15.02-6.72-15.02-15.02S13.58,1.89,21.88,1.89h82.42c7.16,0,13.32,5.05,14.73,12.07l18.21,90.96h337.95
				c4.47,0,8.71,2,11.58,5.44s4.02,8,3.18,12.4l-32.98,172.87c-5.34,26.85-29.18,45.32-56.25,45.38H200.66
				C200.32,341,200,341.02,199.66,341.02z M143.25,134.97l31,154.9c2.48,12.47,13.25,20.95,26.14,21.1h200.61
				c13.07,0.25,23.99-8.61,26.47-21.07l29.55-154.93H143.25z"/>
		</g>
	</g>
</g>
</svg>
