<?xml version="1.0" encoding="utf-8"?>
<!-- Generator: Adobe Illustrator 26.2.1, SVG Export Plug-In . SVG Version: 6.00 Build 0)  -->
<svg version="1.1" id="Layer_1" xmlns="http://www.w3.org/2000/svg" xmlns:xlink="http://www.w3.org/1999/xlink" x="0px" y="0px"
	 viewBox="0 0 301.2 300.14" style="enable-background:new 0 0 301.2 300.14;" xml:space="preserve">
<style type="text/css">
	.st0{fill:#060707;}
</style>
<g id="Group_497" transform="translate(0 0)">
	<g id="Path_360">
		<path class="st0" d="M11.43,300.14c-1.49,0-2.99-0.29-4.41-0.88c-4.26-1.79-7.03-5.97-7.01-10.59L0.94,42.09
			C1.05,18.86,20.02,0,43.22,0c0.03,0,0.07,0,0.1,0L259.1,0.83c23.27,0.11,42.15,19.13,42.09,42.39l-0.58,154.14
			c0,0.01,0,0.01,0,0.02c-0.12,23.22-19.08,42.07-42.28,42.07c-0.04,0-0.08,0-0.11,0l-180.27-0.69l-58.47,58.06
			C17.3,298.99,14.39,300.14,11.43,300.14z M43.21,22.86c-10.65,0-19.35,8.66-19.41,19.33l-0.84,218.95l42.24-41.94
			c2.15-2.14,5.34-3.01,8.1-3.32l184.99,0.71c0.02,0,0.03,0,0.05,0c10.64,0,19.35-8.66,19.41-19.32l0.58-154.12
			c0.02-10.67-8.65-19.41-19.34-19.46L43.25,22.86C43.24,22.86,43.22,22.86,43.21,22.86z M289.19,197.31h0.11H289.19z"/>
	</g>
</g>
</svg>
