<?xml version="1.0" encoding="utf-8"?>
<!-- Generator: Adobe Illustrator 26.3.1, SVG Export Plug-In . SVG Version: 6.00 Build 0)  -->
<svg version="1.1" id="Layer_1" xmlns="http://www.w3.org/2000/svg" xmlns:xlink="http://www.w3.org/1999/xlink" x="0px" y="0px"
	 viewBox="0 0 120 119.4" style="enable-background:new 0 0 120 119.4;" xml:space="preserve">
<g id="Group_497" transform="translate(0 0)">
	<g id="Path_360">
		<path d="M4,119.4c-0.5,0-1-0.1-1.5-0.3C1,118.5,0,117,0,115.4l0.4-99.1C0.4,7.3,7.8,0,16.8,0c0,0,0,0,0,0l86.7,0.3
			c9,0,16.3,7.4,16.3,16.4l-0.2,61.9c0,0,0,0,0,0c0,9-7.4,16.3-16.4,16.3c0,0,0,0,0,0l-72.7-0.3L6.8,118.2C6.1,119,5,119.4,4,119.4z
			 M16.8,8c-4.6,0-8.4,3.7-8.4,8.4L8,105.7l18-17.9c0.7-0.7,1.8-1.2,2.8-1.2c0,0,0,0,0,0l74.3,0.3c4.6,0,8.4-3.7,8.4-8.3l0.2-61.9
			c0-4.6-3.7-8.4-8.4-8.4L16.8,8C16.8,8,16.8,8,16.8,8z M115.6,78.7L115.6,78.7L115.6,78.7z"/>
	</g>
</g>
</svg>
