<?xml version="1.0" encoding="utf-8"?>
<!-- Generator: Adobe Illustrator 26.2.1, SVG Export Plug-In . SVG Version: 6.00 Build 0)  -->
<svg version="1.1" id="Layer_1" xmlns="http://www.w3.org/2000/svg" xmlns:xlink="http://www.w3.org/1999/xlink" x="0px" y="0px"
	 viewBox="0 0 264.28 245.08" style="enable-background:new 0 0 264.28 245.08;" xml:space="preserve">
<style type="text/css">
	.st0{clip-path:url(#SVGID_00000033370962817503424940000018439506284230333629_);}
	.st1{fill:#171716;}
</style>
<g>
	<defs>
		<rect id="SVGID_1_" x="0" width="264.28" height="245.08"/>
	</defs>
	<clipPath id="SVGID_00000167394144238941630140000008365610599434961571_">
		<use xlink:href="#SVGID_1_"  style="overflow:visible;"/>
	</clipPath>
	<g id="Group_189" style="clip-path:url(#SVGID_00000167394144238941630140000008365610599434961571_);">
		<path id="Path_127" class="st1" d="M264.25,31.11c0.16-14.73-11.66-26.79-26.38-26.95c-0.02,0-0.04,0-0.06,0
			c-7.81-0.09-15.63,0-23.44,0h-30.14c-6.61-4.27-14.8-5.32-22.27-2.87c-2.92,0.94-5.82,1.89-8.72,2.87h-7.55
			c-7.78-4.21-17.14-4.31-25.01-0.26c-5.13,2.58-10.22,5.25-15.31,7.92c-6.41-0.67-12.86,0.99-18.14,4.68
			c-6.39,4.46-12.68,9.07-19.02,13.61c-1.66,1.19-3.32,2.37-4.99,3.56c-8.09,4.19-16.18,8.38-24.26,12.57
			c-5.95,3.01-10.63,8.06-13.19,14.22l0,0c-4.45,3.18-8.9,6.36-13.35,9.55C7.66,73.16,3.96,77.65,1.77,82.9
			c-3.14,8.15-2.04,17.34,2.95,24.51c2.88,4.14,5.88,8.21,8.81,12.32c14.62,20.43,29.24,40.87,43.86,61.3
			c12,16.77,24,33.55,36,50.32c1.08,1.51,2.14,3.06,3.32,4.49c6.63,7.76,17.14,10.99,26.99,8.31c7.48-2.07,14.16-8.19,20.36-12.62
			c3.97-2.85,7.95-5.69,11.91-8.52l0,0c1.13-0.21,2.24-0.42,3.33-0.6c20.72-3.41,41.45-6.83,62.17-10.24h16.51
			c0.11,0,0.22,0,0.32-0.01c10.03-0.19,19.09-6.02,23.41-15.07c1.75-3.95,2.6-8.23,2.51-12.54V85.36
			C264.24,67.28,264.3,49.19,264.25,31.11 M116.52,15.12c3.73-2.16,7.65-3.96,11.71-5.38c-1.57,1.24-2.99,2.65-4.23,4.21l0,0
			c-2.31,0.76-4.61,1.53-6.92,2.31l0,0c-0.4-0.28-0.79-0.55-1.21-0.8l0.66-0.34 M32.32,65.66c0.24-0.97,0.56-1.93,0.96-2.85
			c3.35-7.69,11.96-10.75,18.92-14.36l5.02-2.6c-0.35,0.87-0.66,1.75-0.92,2.65c-1.46,5.06-1.38,10.43,0.22,15.45
			c1.53,4.81,3.19,9.58,4.79,14.37c7.94,23.84,15.89,47.67,23.83,71.51c6.53,19.57,13.05,39.14,19.56,58.71
			c0.59,1.78,1.16,3.54,1.89,5.27c2.18,5.02,5.89,9.22,10.6,12.01c-5.12-1.34-9.45-4.77-11.93-9.45
			c-6.99-13.02-13.61-26.26-20.4-39.38l-36.14-69.75c-4.06-7.83-8.11-15.65-12.17-23.47c-0.88-1.69-1.76-3.38-2.63-5.08
			C31.84,74.67,31.27,70.04,32.32,65.66 M113.43,209.27c-4.86-13.96-9.35-28.06-14.02-42.08c-8.23-24.69-16.46-49.39-24.69-74.1
			c-2.82-8.47-5.64-16.93-8.46-25.4c-0.61-1.82-1.23-3.65-1.82-5.47c-1.9-5.25-1.35-11.08,1.5-15.89
			c4.4-7.29,13.21-8.94,20.71-11.43c1.58-0.53,3.15-1.05,4.73-1.58c-2.79,5.23-3.79,11.23-2.83,17.08
			c0.77,4.99,1.64,9.97,2.46,14.96c4.09,24.79,8.17,49.59,12.25,74.38c3.36,20.35,6.71,40.7,10.06,61.05
			c0.29,1.74,0.52,3.51,0.98,5.22c1.59,5.76,5.09,10.81,9.93,14.32c-5.04-1.92-8.98-5.96-10.78-11.04 M118.12,30.48
			c-0.06,4.94,0,9.88,0,14.83v135.81c-1.25-7.76-2.47-15.51-3.75-23.26c-4.23-25.69-8.46-51.38-12.69-77.07
			c-1.45-8.8-2.9-17.61-4.36-26.42c-1.21-7.37-2.21-14.51,3.37-20.76c4.07-4.57,9.95-5.98,15.86-6.9c0.58,0.66,1.12,1.35,1.65,2.05
			C118.15,29.33,118.12,29.9,118.12,30.48 M144.52,216.73L144.52,216.73c-1.91,0.37-3.85,0.55-5.79,0.52
			c-8.69-0.52-15.83-7.03-17.15-15.63c-0.25-1.4-0.5-2.81-0.74-4.22c3,6.11,8.24,10.84,14.63,13.21c5.28,1.96,11.6,1.88,17.56,1.7
			L144.52,216.73 M124.37,235.37c-7.82,3.54-17.04,1.21-22.24-5.62c-8.94-11.75-17.22-24.07-25.8-36.07
			c-15.15-21.17-30.3-42.35-45.45-63.52c-5.2-7.26-10.39-14.52-15.58-21.78c-1.12-1.56-2.24-3.12-3.36-4.69
			c-3.39-4.44-4.63-10.16-3.38-15.6c1.98-7.94,9.05-12.04,15.31-16.4c0.21,3.74,1.2,7.39,2.89,10.73c2.22,4.42,4.55,8.77,6.83,13.16
			c11.62,22.41,23.24,44.82,34.85,67.23c9.5,18.31,18.98,36.63,28.47,54.94c0.81,1.55,1.56,3.15,2.52,4.61
			c5.59,8.58,15.63,13.16,25.78,11.77c0.66-0.09,1.31-0.22,1.97-0.36C126.27,234.36,125.33,234.89,124.37,235.37 M221.08,204.09
			h-72.64c-2.59,0.15-5.19,0.03-7.75-0.36c-8.4-1.82-14.43-9.21-14.51-17.81c-0.22-14.78,0-29.58,0-44.35V36.58
			c0-1.9-0.01-3.81,0-5.72c0.01-1.4,0.15-2.79,0.44-4.15c0.12-0.54,0.25-1.07,0.41-1.6c0.45-1.51,1.1-2.96,1.92-4.31
			c1.08-1.77,2.47-3.34,4.09-4.63c0.1-0.08,0.2-0.16,0.3-0.23c3.04-2.16,6.64-3.42,10.36-3.62c3.65-0.22,7.31-0.25,10.96-0.09h0.01
			c0.36,0.01,0.71,0.02,1.07,0.02h72.81c2.92,0,5.84-0.01,8.76,0c5.89-0.14,11.51,2.51,15.15,7.14c4.26,5.57,3.7,12.11,3.7,18.63
			v136.94c0,4.77,0.67,10.3-0.44,15c-1.87,7.88-8.68,13.62-16.76,14.11c-0.32,0.02-0.65,0.04-0.97,0.04L221.08,204.09z"/>
	</g>
</g>
</svg>
