<?xml version="1.0" encoding="utf-8"?>
<!-- Generator: Adobe Illustrator 26.3.1, SVG Export Plug-In . SVG Version: 6.00 Build 0)  -->
<svg version="1.1" id="Layer_1" xmlns="http://www.w3.org/2000/svg" xmlns:xlink="http://www.w3.org/1999/xlink" x="0px" y="0px"
	 viewBox="0 0 264.3 245.1" style="enable-background:new 0 0 264.3 245.1;" xml:space="preserve">
<style type="text/css">
	.st0{clip-path:url(#SVGID_00000088839547170831429520000000678474175367818408_);}
	.st1{fill:#6F9BC2;}
</style>
<g>
	<g>
		<defs>
			<rect id="SVGID_1_" width="264.3" height="245.1"/>
		</defs>
		<clipPath id="SVGID_00000037686783478838653100000011711709183520868008_">
			<use xlink:href="#SVGID_1_"  style="overflow:visible;"/>
		</clipPath>
		<g id="Group_189" style="clip-path:url(#SVGID_00000037686783478838653100000011711709183520868008_);">
			<path id="Path_127" class="st1" d="M264.2,31.1c0.2-14.7-11.7-26.8-26.4-27c0,0,0,0-0.1,0c-7.8-0.1-15.6,0-23.4,0h-30.1
				c-6.6-4.3-14.8-5.3-22.3-2.9c-2.9,0.9-5.8,1.9-8.7,2.9h-7.6c-7.8-4.2-17.1-4.3-25-0.3c-5.1,2.6-10.2,5.2-15.3,7.9
				c-6.4-0.7-12.9,1-18.1,4.7c-6.4,4.5-12.7,9.1-19,13.6c-1.7,1.2-3.3,2.4-5,3.6C55.1,37.9,47,42.1,39,46.2c-6,3-10.6,8.1-13.2,14.2
				l0,0c-4.5,3.2-8.9,6.4-13.4,9.5C7.7,73.2,4,77.7,1.8,82.9c-3.1,8.2-2,17.3,3,24.5c2.9,4.1,5.9,8.2,8.8,12.3
				c14.6,20.4,29.2,40.9,43.9,61.3c12,16.8,24,33.6,36,50.3c1.1,1.5,2.1,3.1,3.3,4.5c6.6,7.8,17.1,11,27,8.3
				c7.5-2.1,14.2-8.2,20.4-12.6c4-2.9,7.9-5.7,11.9-8.5l0,0c1.1-0.2,2.2-0.4,3.3-0.6c20.7-3.4,41.4-6.8,62.2-10.2H238
				c0.1,0,0.2,0,0.3,0c10-0.2,19.1-6,23.4-15.1c1.8-3.9,2.6-8.2,2.5-12.5V85.4C264.2,67.3,264.3,49.2,264.2,31.1 M116.5,15.1
				c3.7-2.2,7.7-4,11.7-5.4c-1.6,1.2-3,2.6-4.2,4.2l0,0c-2.3,0.8-4.6,1.5-6.9,2.3l0,0c-0.4-0.3-0.8-0.6-1.2-0.8L116.5,15.1
				 M32.3,65.7c0.2-1,0.6-1.9,1-2.8c3.3-7.7,12-10.8,18.9-14.4l5-2.6c-0.3,0.9-0.7,1.8-0.9,2.7c-1.5,5.1-1.4,10.4,0.2,15.5
				c1.5,4.8,3.2,9.6,4.8,14.4c7.9,23.8,15.9,47.7,23.8,71.5c6.5,19.6,13.1,39.1,19.6,58.7c0.6,1.8,1.2,3.5,1.9,5.3
				c2.2,5,5.9,9.2,10.6,12c-5.1-1.3-9.4-4.8-11.9-9.4c-7-13-13.6-26.3-20.4-39.4l-36.1-69.8c-4.1-7.8-8.1-15.7-12.2-23.5
				c-0.9-1.7-1.8-3.4-2.6-5.1C31.8,74.7,31.3,70,32.3,65.7 M113.4,209.3c-4.9-14-9.3-28.1-14-42.1c-8.2-24.7-16.5-49.4-24.7-74.1
				c-2.8-8.5-5.6-16.9-8.5-25.4c-0.6-1.8-1.2-3.7-1.8-5.5c-1.9-5.2-1.3-11.1,1.5-15.9c4.4-7.3,13.2-8.9,20.7-11.4
				c1.6-0.5,3.2-1,4.7-1.6c-2.8,5.2-3.8,11.2-2.8,17.1c0.8,5,1.6,10,2.5,15c4.1,24.8,8.2,49.6,12.2,74.4
				c3.4,20.4,6.7,40.7,10.1,61.1c0.3,1.7,0.5,3.5,1,5.2c1.6,5.8,5.1,10.8,9.9,14.3C119.2,218.4,115.2,214.4,113.4,209.3 M118.1,30.5
				c-0.1,4.9,0,9.9,0,14.8v135.8c-1.2-7.8-2.5-15.5-3.8-23.3c-4.2-25.7-8.5-51.4-12.7-77.1c-1.4-8.8-2.9-17.6-4.4-26.4
				c-1.2-7.4-2.2-14.5,3.4-20.8c4.1-4.6,9.9-6,15.9-6.9c0.6,0.7,1.1,1.4,1.7,2C118.2,29.3,118.1,29.9,118.1,30.5 M144.5,216.7
				L144.5,216.7c-1.9,0.4-3.9,0.6-5.8,0.5c-8.7-0.5-15.8-7-17.2-15.6c-0.2-1.4-0.5-2.8-0.7-4.2c3,6.1,8.2,10.8,14.6,13.2
				c5.3,2,11.6,1.9,17.6,1.7L144.5,216.7 M124.4,235.4c-7.8,3.5-17,1.2-22.2-5.6c-8.9-11.8-17.2-24.1-25.8-36.1
				c-15.2-21.2-30.3-42.4-45.5-63.5c-5.2-7.3-10.4-14.5-15.6-21.8c-1.1-1.6-2.2-3.1-3.4-4.7c-3.4-4.4-4.6-10.2-3.4-15.6
				c2-7.9,9-12,15.3-16.4c0.2,3.7,1.2,7.4,2.9,10.7c2.2,4.4,4.5,8.8,6.8,13.2c11.6,22.4,23.2,44.8,34.8,67.2
				c9.5,18.3,19,36.6,28.5,54.9c0.8,1.6,1.6,3.1,2.5,4.6c5.6,8.6,15.6,13.2,25.8,11.8c0.7-0.1,1.3-0.2,2-0.4
				C126.3,234.4,125.3,234.9,124.4,235.4 M221.1,204.1h-72.6c-2.6,0.1-5.2,0-7.8-0.4c-8.4-1.8-14.4-9.2-14.5-17.8
				c-0.2-14.8,0-29.6,0-44.3v-105c0-1.9,0-3.8,0-5.7c0-1.4,0.2-2.8,0.4-4.1c0.1-0.5,0.2-1.1,0.4-1.6c0.4-1.5,1.1-3,1.9-4.3
				c1.1-1.8,2.5-3.3,4.1-4.6c0.1-0.1,0.2-0.2,0.3-0.2c3-2.2,6.6-3.4,10.4-3.6c3.6-0.2,7.3-0.2,11-0.1h0c0.4,0,0.7,0,1.1,0h72.8
				c2.9,0,5.8,0,8.8,0c5.9-0.1,11.5,2.5,15.1,7.1c4.3,5.6,3.7,12.1,3.7,18.6V175c0,4.8,0.7,10.3-0.4,15c-1.9,7.9-8.7,13.6-16.8,14.1
				c-0.3,0-0.6,0-1,0L221.1,204.1z"/>
		</g>
	</g>
</g>
</svg>
