<?xml version="1.0" encoding="utf-8"?>
<!-- Generator: Adobe Illustrator 26.2.1, SVG Export Plug-In . SVG Version: 6.00 Build 0)  -->
<svg version="1.1" id="Layer_1" xmlns="http://www.w3.org/2000/svg" xmlns:xlink="http://www.w3.org/1999/xlink" x="0px" y="0px"
	 viewBox="0 0 391.4 324.73" style="enable-background:new 0 0 391.4 324.73;" xml:space="preserve">
<style type="text/css">
	.st0{fill:#060707;}
</style>
<g>
	<g id="Group_141" transform="translate(2.778 6.946)">
		<path id="Path_98" class="st0" d="M343.49,317.78H42.32c-6.49,0-11.76-5.26-11.76-11.76V88.49c0-6.49,5.26-11.76,11.76-11.76
			S54.08,82,54.08,88.49v205.78h277.66V88.49c0-6.49,5.26-11.76,11.76-11.76c6.49,0,11.76,5.26,11.76,11.76v217.53
			C355.25,312.52,349.99,317.78,343.49,317.78z"/>
	</g>
	<g id="Group_142">
		<path id="Path_99" class="st0" d="M379.73,107.19H11.63c-6.49,0.01-11.75-5.25-11.76-11.73c0-0.01,0-0.02,0-0.02V11.76
			C-0.14,5.27,5.12,0.01,11.61,0c0.01,0,0.02,0,0.02,0h368.14c6.49-0.01,11.75,5.25,11.76,11.73c0,0.01,0,0.02,0,0.02v83.68
			c0.01,6.49-5.25,11.75-11.73,11.76C379.77,107.19,379.75,107.19,379.73,107.19z M23.34,83.68h344.63V23.51H23.34V83.68z"/>
	</g>
	<g id="Group_143" transform="translate(12.501 12.501)">
		<path id="Path_100" class="st0" d="M216.62,161.63h-67.01c-6.49,0-11.76-5.26-11.76-11.76c0-6.49,5.26-11.76,11.76-11.76l0,0
			h66.95c6.49,0,11.76,5.26,11.76,11.76c0,6.49-5.26,11.76-11.76,11.76H216.62z"/>
	</g>
</g>
</svg>
