<?xml version="1.0" encoding="utf-8"?>
<!-- Generator: Adobe Illustrator 26.3.1, SVG Export Plug-In . SVG Version: 6.00 Build 0)  -->
<svg version="1.1" id="Layer_1" xmlns="http://www.w3.org/2000/svg" xmlns:xlink="http://www.w3.org/1999/xlink" x="0px" y="0px"
	 viewBox="0 0 323.2 323.2" style="enable-background:new 0 0 323.2 323.2;" xml:space="preserve">
<g id="edit" transform="translate(-7 -0.879)">
	<g id="Path_1130">
		<path d="M27.1,324.1c-5.2,0-10.4-2.1-14.2-5.9c-5-5-7-12.2-5.3-19L27.6,219c0.9-3.5,2.7-6.8,5.3-9.3L223.4,19.2
			c24.4-24.4,64.1-24.4,88.5,0c24.4,24.4,24.4,64.1,0,88.5L121.4,298.2c-2.6,2.6-5.8,4.4-9.3,5.3l-80.2,20.1
			C30.3,323.9,28.7,324.1,27.1,324.1z M107.3,284h0.2H107.3z M65.2,234.1l-10.6,42.4L97,265.9L283.6,79.3c8.8-8.8,8.8-23,0-31.8
			c-8.8-8.8-23-8.8-31.8,0L65.2,234.1z"/>
	</g>
</g>
</svg>
