<?xml version="1.0" encoding="utf-8"?>
<!-- Generator: Adobe Illustrator 26.3.1, SVG Export Plug-In . SVG Version: 6.00 Build 0)  -->
<svg version="1.1" id="Layer_1" xmlns="http://www.w3.org/2000/svg" xmlns:xlink="http://www.w3.org/1999/xlink" x="0px" y="0px"
	 viewBox="0 0 273.2 273.2" style="enable-background:new 0 0 273.2 273.2;" xml:space="preserve">
<style type="text/css">
	.st0{fill:#010101;}
</style>
<g>
	<g>
		<path class="st0" d="M209.9,273.2H37c-20.4,0-37-16.6-37-37V63.2c0-20.4,16.6-37,37-37h86.4c6.8,0,12.3,5.5,12.3,12.3
			s-5.5,12.3-12.3,12.3H37c-6.8,0-12.3,5.5-12.3,12.3v172.9c0,6.8,5.5,12.3,12.3,12.3h172.9c6.8,0,12.3-5.5,12.3-12.3v-86.4
			c0-6.8,5.5-12.3,12.3-12.3c6.8,0,12.3,5.5,12.3,12.3v86.4C247,256.5,230.4,273.2,209.9,273.2z"/>
	</g>
	<g>
		<path class="st0" d="M86.4,199.1c-3.2,0-6.4-1.3-8.7-3.6c-3.1-3.1-4.3-7.5-3.3-11.7l12.3-49.4c0.5-2.2,1.7-4.2,3.3-5.7L207.4,11.3
			c15-15,39.5-15,54.5,0c15,15,15,39.5,0,54.5L144.6,183.1c-1.6,1.6-3.6,2.7-5.7,3.2l-49.4,12.3C88.4,198.9,87.4,199.1,86.4,199.1z
			 M135.8,174.4h0.1H135.8z M109.9,143.6l-6.5,26.1l26.1-6.5L244.4,48.3c5.4-5.4,5.4-14.2,0-19.6c-5.4-5.4-14.2-5.4-19.6,0
			L109.9,143.6z"/>
	</g>
</g>
</svg>
