<?xml version="1.0" encoding="utf-8"?>
<!-- Generator: Adobe Illustrator 26.2.1, SVG Export Plug-In . SVG Version: 6.00 Build 0)  -->
<svg version="1.1" id="Layer_1" xmlns="http://www.w3.org/2000/svg" xmlns:xlink="http://www.w3.org/1999/xlink" x="0px" y="0px"
	 viewBox="0 0 282.01 229.66" style="enable-background:new 0 0 282.01 229.66;" xml:space="preserve">
<style type="text/css">
	.st0{fill:#060707;}
</style>
<path class="st0" d="M246.86,0H35.16C15.6,0.02-0.26,15.87-0.28,35.43v158.85c0.06,19.54,15.9,35.36,35.44,35.38h211.7
	c19.54-0.02,35.38-15.84,35.43-35.38V35.43C282.27,15.87,266.42,0.02,246.86,0z M35.16,18.01l211.7-0.06
	c8.19,0.01,15.04,5.65,16.94,13.25L141,117.16L18.23,31.22C20.15,23.63,26.99,18.02,35.16,18.01z M246.86,211.76H35.17
	c-9.65-0.01-17.48-7.83-17.49-17.48V52.73l118.18,82.72c1.51,1.06,3.3,1.63,5.14,1.64v-0.01c1.84,0,3.64-0.57,5.14-1.63l118.2-82.72
	v141.55C264.33,203.93,256.51,211.75,246.86,211.76z"/>
</svg>
