<?xml version="1.0" encoding="utf-8"?>
<!-- Generator: Adobe Illustrator 26.3.1, SVG Export Plug-In . SVG Version: 6.00 Build 0)  -->
<svg version="1.1" id="Layer_1" xmlns="http://www.w3.org/2000/svg" xmlns:xlink="http://www.w3.org/1999/xlink" x="0px" y="0px"
	 viewBox="0 0 148.2 129.3" style="enable-background:new 0 0 148.2 129.3;" xml:space="preserve">
<style type="text/css">
	.st0{fill:#171716;}
	.st1{enable-background:new    ;}
	.st2{fill:#221F20;}
</style>
<g id="Group_457" transform="matrix(0.966, -0.259, 0.259, 0.966, -210.553, -271.562)">
	<g id="Path_127">
		<path class="st0" d="M268.1,384c3.6-7.2,0.7-15.9-6.5-19.5c0,0,0,0,0,0c-3.8-1.9-7.7-3.7-11.5-5.6l-14.8-7.2
			c-2.2-3.7-6-6.1-10.2-6.7c-1.7-0.2-3.3-0.5-5-0.7l-3.7-1.8c-2.8-3.9-7.4-6.2-12.2-6.1c-3.1,0-6.3,0.1-9.4,0.2c-3-1.9-6.5-2.6-10-2
			c-4.2,0.7-8.4,1.4-12.6,2.1c-1.1,0.2-2.2,0.4-3.3,0.6c-5,0.1-9.9,0.2-14.9,0.4c-3.6,0.1-7.1,1.4-9.8,3.8l0,0
			c-2.9,0.5-5.9,1-8.8,1.5c-3.1,0.4-6,1.7-8.3,3.8c-3.5,3.2-5.1,8-4.4,12.7c0.4,2.7,0.9,5.4,1.4,8.1c2.3,13.5,4.6,27,6.8,40.5
			c1.9,11.1,3.7,22.2,5.6,33.2c0.2,1,0.3,2,0.6,3c1.4,5.4,5.8,9.5,11.2,10.5c4.2,0.8,8.9-0.6,13-1.3c2.6-0.4,5.2-0.9,7.9-1.3l0,0
			c0.6,0.2,1.2,0.3,1.8,0.5c11,3.3,21.9,6.6,32.9,9.8l8.1,3.9c0.1,0,0.1,0.1,0.2,0.1c5,2.3,10.8,1.6,15.1-1.8
			c1.8-1.5,3.2-3.4,4.2-5.5l23.7-48.6C259.5,401.7,263.8,392.8,268.1,384 M199.6,340.9c2.3-0.2,4.7-0.1,7,0.2
			c-1.1,0.2-2.1,0.6-3.1,1l0,0c-1.3-0.2-2.6-0.4-3.9-0.5l0,0c-0.1-0.2-0.3-0.5-0.4-0.7L199.6,340.9 M146.4,345.5
			c0.3-0.4,0.7-0.8,1.1-1.2c3.5-3,8.4-2.4,12.7-2.5l3.1-0.1c-0.4,0.3-0.7,0.7-1.1,1.1c-1.9,2.1-3.2,4.8-3.6,7.6
			c-0.4,2.7-0.7,5.4-1.1,8.2c-1.8,13.6-3.6,27.1-5.4,40.7c-1.5,11.1-3,22.3-4.4,33.4c-0.1,1-0.3,2-0.3,3c-0.1,3,0.7,5.9,2.3,8.4
			c-2.2-1.9-3.5-4.6-3.6-7.5c-0.3-8-0.4-16.1-0.6-24.1l-1-42.8c-0.1-4.8-0.2-9.6-0.4-14.4c0-1-0.1-2.1-0.1-3.1
			C144,349.8,144.8,347.4,146.4,345.5 M151.8,435.2c1-8,2.1-16,3.2-23.9c1.9-14.1,3.7-28.1,5.6-42.2c0.6-4.8,1.3-9.6,1.9-14.5
			c0.1-1,0.3-2.1,0.4-3.1c0.3-3,2-5.7,4.5-7.4c3.9-2.5,8.6-1.2,12.9-0.7c0.9,0.1,1.8,0.2,2.7,0.4c-2.6,1.9-4.5,4.6-5.5,7.7
			c-0.8,2.6-1.6,5.3-2.4,7.9c-3.9,13.1-7.8,26.2-11.8,39.3c-3.2,10.8-6.4,21.5-9.7,32.3c-0.3,0.9-0.6,1.8-0.8,2.8
			c-0.6,3.2-0.1,6.5,1.4,9.4C152.4,441,151.4,438.1,151.8,435.2 M196.8,348.8c-1.2,2.4-2.4,4.8-3.5,7.3l-32.4,66.5
			c1.2-4.1,2.5-8.2,3.7-12.3c4.1-13.6,8.1-27.2,12.2-40.8c1.4-4.7,2.8-9.3,4.2-14c1.2-3.9,2.4-7.6,6.6-9.4c3.1-1.3,6.3-0.6,9.4,0.4
			c0.1,0.5,0.2,0.9,0.3,1.4C197,348.2,196.9,348.5,196.8,348.8 M165.2,446.2L165.2,446.2c-1-0.3-2-0.7-3-1.1
			c-4.1-2.3-6.1-7.2-4.7-11.7c0.2-0.7,0.4-1.5,0.6-2.2c0,3.7,1.4,7.3,4,10c2.1,2.2,5.2,3.7,8.2,5L165.2,446.2 M150.9,450.5
			c-4.7-0.1-8.6-3.5-9.5-8.1c-1.6-7.9-2.7-15.9-4-23.8c-2.4-14-4.7-28-7.1-41.9c-0.8-4.8-1.6-9.6-2.4-14.4c-0.2-1-0.4-2.1-0.5-3.1
			c-0.6-3,0.2-6.1,2.1-8.4c2.9-3.4,7.3-3.7,11.4-4.4c-0.8,1.9-1.2,3.9-1.1,5.9c0,2.7,0.1,5.4,0.2,8.1c0.3,13.7,0.7,27.5,1,41.2
			c0.3,11.2,0.5,22.5,0.8,33.7c0,1,0,1.9,0.1,2.9c0.7,5.5,4.5,10.2,9.8,11.9c0.3,0.1,0.7,0.2,1.1,0.3
			C152.1,450.5,151.5,450.5,150.9,450.5 M205.7,458.3L170.1,441c-1.3-0.5-2.5-1.2-3.7-2c-3.7-2.9-4.9-8-2.8-12.2
			c3.4-7.3,7.1-14.5,10.6-21.7l25.1-51.4c0.5-0.9,0.9-1.9,1.4-2.8c0.3-0.7,0.7-1.3,1.2-1.9c0.2-0.2,0.4-0.5,0.6-0.7
			c0.6-0.6,1.2-1.2,2-1.7c1-0.6,2-1,3.1-1.3c0.1,0,0.1,0,0.2,0c2-0.3,4.1-0.1,5.9,0.7c1.8,0.8,3.6,1.6,5.4,2.6l0,0
			c0.2,0.1,0.3,0.2,0.5,0.3l35.6,17.4c1.4,0.7,2.9,1.4,4.3,2.1c2.9,1.3,5,4,5.7,7.1c0.8,3.7-1.1,6.8-2.6,10l-32.7,67
			c-1.1,2.3-2.1,5.2-3.8,7.2c-2.8,3.4-7.5,4.6-11.6,2.9c-0.2-0.1-0.3-0.1-0.5-0.2L205.7,458.3z"/>
	</g>
	<g class="st1">
		<path class="st2" d="M207.5,408l4.6-9.5c2,1.6,4.9,2.7,7.1,2.1c1.3-0.4,2.6-1.4,3.3-2.8c0.5-1,0.6-2.1,0.3-3.1
			c-0.4-1.2-1.3-1.8-2-2.2c-1.3-0.7-2.4-0.5-3.1-0.3c-0.9,0.3-1.8,1.4-2.3,2.5l-7.9-3.9c1.6-3.1,4.1-4.9,6.3-5.7
			c1.9-0.7,5.3-1.3,10,1c4,2,6.1,4.7,7,7.2c1.1,3,0.6,6-0.6,8.5c-1.4,2.8-3.6,4.5-5.8,5.3c-1.6,0.6-4.2,1.2-7.3,0.2l-2.1,4.3
			L207.5,408z M210.3,412.3c2.6,1.3,3.7,4.3,2.4,7c-1.3,2.6-4.3,3.7-7,2.4c-2.6-1.3-3.7-4.3-2.4-7
			C204.6,412.1,207.7,411,210.3,412.3z"/>
	</g>
</g>
</svg>
