<?xml version="1.0" encoding="utf-8"?>
<!-- Generator: Adobe Illustrator 26.3.1, SVG Export Plug-In . SVG Version: 6.00 Build 0)  -->
<svg version="1.1" id="Layer_1" xmlns="http://www.w3.org/2000/svg" xmlns:xlink="http://www.w3.org/1999/xlink" x="0px" y="0px"
	 viewBox="0 0 118.8 98.4" style="enable-background:new 0 0 118.8 98.4;" xml:space="preserve">
<style type="text/css">
	.st0{fill:#212529;}
</style>
<g id="users" transform="translate(3 1.195)">
	<g id="Path_387">
		<path class="st0" d="M81.5,97.2c-2.2,0-4-1.8-4-4V83.2c0-8.9-7.2-16.1-16.1-16.1H21.1C12.2,67,5,74.3,5,83.2v10.1c0,2.2-1.8,4-4,4
			s-4-1.8-4-4V83.2C-3,69.9,7.8,59,21.1,59h40.3c13.3,0,24.1,10.8,24.1,24.1v10.1C85.5,95.4,83.8,97.2,81.5,97.2z"/>
	</g>
	<g id="Ellipse_26">
		<path class="st0" d="M41.6,46.7c-13.2,0-24-10.7-24-24s10.7-24,24-24c13.2,0,24,10.7,24,24S54.8,46.7,41.6,46.7z M41.6,6.8
			c-8.8,0-16,7.2-16,16s7.2,16,16,16c8.8,0,16-7.2,16-16S50.4,6.8,41.6,6.8z"/>
	</g>
	<g id="Path_388">
		<path class="st0" d="M111.8,97.2c-2.2,0-4-1.8-4-4V83.2c0-7.4-5-13.8-12.1-15.6c-2.1-0.6-3.4-2.7-2.9-4.9s2.7-3.4,4.9-2.9
			c10.6,2.8,18.1,12.4,18.1,23.4v10.1C115.8,95.4,114,97.2,111.8,97.2z"/>
	</g>
	<g id="Path_389">
		<path class="st0" d="M76.5,46.3c-1.8,0-3.4-1.2-3.9-3c-0.5-2.1,0.7-4.3,2.9-4.9c5.7-1.5,10.2-5.9,11.6-11.6
			c1.1-4.2,0.4-8.5-1.7-12.2c-2.2-3.7-5.7-6.3-9.9-7.4c-2.1-0.5-3.4-2.7-2.9-4.9s2.7-3.4,4.9-2.9C83.8,1,89,4.9,92.3,10.5
			s4.2,12,2.6,18.3C92.7,37.3,86,44,77.5,46.2C77.2,46.2,76.8,46.3,76.5,46.3z"/>
	</g>
</g>
</svg>
