<?xml version="1.0" encoding="utf-8"?>
<!-- Generator: Adobe Illustrator 26.2.1, SVG Export Plug-In . SVG Version: 6.00 Build 0)  -->
<svg version="1.1" id="Layer_1" xmlns="http://www.w3.org/2000/svg" xmlns:xlink="http://www.w3.org/1999/xlink" x="0px" y="0px"
	 viewBox="0 0 510.99 480.92" style="enable-background:new 0 0 510.99 480.92;" xml:space="preserve">
<style type="text/css">
	.st0{fill:#92201E;}
	.st1{fill:#CD3836;}
	.st2{clip-path:url(#SVGID_00000013885759965527870070000015534765240126262951_);}
	.st3{fill:url(#Rectangle_37_00000138546491694520633670000004828898834588612031_);}
	.st4{clip-path:url(#SVGID_00000124141107992022543390000013395038144397396892_);}
	.st5{fill:url(#Rectangle_38_00000142141595814578693730000016665858888702701700_);}
</style>
<g id="Group_38" transform="translate(0 0)">
	<path id="Path_28" class="st0" d="M360.61,161.92v39.54l-37.5-32.55v-39.54L360.61,161.92z"/>
	<path id="Path_29" class="st1" d="M286.16,32.36V71.9L75.71,254.16v-39.54L286.16,32.36z"/>
	<path id="Path_30" class="st1" d="M323.06,129.37v39.54L187.67,286.26v-39.54L323.06,129.37z"/>
	<path id="Path_31" class="st0" d="M187.66,246.73v39.54l-37.01-31.99v-39.54L187.66,246.73z"/>
	<g id="Group_35" transform="translate(16.733 7.239)">
		<g>
			<defs>
				<polygon id="SVGID_1_" points="133.92,207.51 306.97,57.67 419,154.68 246.23,304.27 208.66,271.85 343.88,154.68 
					306.37,122.13 170.93,239.48 				"/>
			</defs>
			<clipPath id="SVGID_00000088813494299868987010000016821448580719392919_">
				<use xlink:href="#SVGID_1_"  style="overflow:visible;"/>
			</clipPath>
			<g id="Group_34" style="clip-path:url(#SVGID_00000088813494299868987010000016821448580719392919_);">
				
					<linearGradient id="Rectangle_37_00000004527833560345497130000000418517744205416338_" gradientUnits="userSpaceOnUse" x1="-183.1246" y1="507.7968" x2="-182.7929" y2="507.7968" gradientTransform="matrix(31.79 0 0 -27.504 5805.5264 14147.415)">
					<stop  offset="0" style="stop-color:#E11D39"/>
					<stop  offset="1" style="stop-color:#EA4433"/>
				</linearGradient>
				
					<rect id="Rectangle_37" x="133.92" y="57.67" style="fill:url(#Rectangle_37_00000004527833560345497130000000418517744205416338_);" width="285.04" height="246.61"/>
			</g>
		</g>
	</g>
	<path id="Path_33" class="st1" d="M435.69,161.92v39.54L262.92,351.05V311.5L435.69,161.92z"/>
	<path id="Path_34" class="st0" d="M262.97,311.51v39.54l-37.58-32.42v-39.54L262.97,311.51z"/>
	<path id="Path_35" class="st1" d="M262.46,441.38v39.54l247.9-214.8v-39.54L262.46,441.38z"/>
	<g id="Group_37" transform="translate(0 0)">
		<g>
			<defs>
				<polygon id="SVGID_00000111181510758460313470000016443033328903212947_" points="248.52,0 0.62,214.62 262.44,441.38 
					510.35,226.59 473.21,194.4 262.82,376.67 75.71,214.62 286.17,32.36 				"/>
			</defs>
			<clipPath id="SVGID_00000024710802549262248190000015356531269015092628_">
				<use xlink:href="#SVGID_00000111181510758460313470000016443033328903212947_"  style="overflow:visible;"/>
			</clipPath>
			<g id="Group_36" style="clip-path:url(#SVGID_00000024710802549262248190000015356531269015092628_);">
				
					<linearGradient id="Rectangle_38_00000034809540901797253590000015645866934704398987_" gradientUnits="userSpaceOnUse" x1="-167.8341" y1="518.1829" x2="-167.6458" y2="518.1829" gradientTransform="matrix(56.85 0 0 -49.227 9541.9941 25729.2812)">
					<stop  offset="0" style="stop-color:#E11D39"/>
					<stop  offset="1" style="stop-color:#EA4433"/>
				</linearGradient>
				
					<rect id="Rectangle_38" x="0.62" style="fill:url(#Rectangle_38_00000034809540901797253590000015645866934704398987_);" width="509.73" height="441.38"/>
			</g>
		</g>
	</g>
	<path id="Path_37" class="st0" d="M0.62,254.16l261.81,226.76v-39.54L0.62,214.62V254.16z"/>
</g>
</svg>
