<?xml version="1.0" encoding="utf-8"?>
<!-- Generator: Adobe Illustrator 26.3.1, SVG Export Plug-In . SVG Version: 6.00 Build 0)  -->
<svg version="1.1" id="Layer_1" xmlns="http://www.w3.org/2000/svg" xmlns:xlink="http://www.w3.org/1999/xlink" x="0px" y="0px"
	 viewBox="0 0 273.4 181.6" style="enable-background:new 0 0 273.4 181.6;" xml:space="preserve">
<style type="text/css">
	.st0{clip-path:url(#SVGID_00000067935366436504150600000005030388848197195191_);}
	.st1{fill:#060707;}
</style>
<g>
	<defs>
		<rect id="SVGID_1_" width="273.4" height="181.6"/>
	</defs>
	<clipPath id="SVGID_00000088831160940114266310000016261982913541124782_">
		<use xlink:href="#SVGID_1_"  style="overflow:visible;"/>
	</clipPath>
	<g id="Group_529" style="clip-path:url(#SVGID_00000088831160940114266310000016261982913541124782_);">
		<path id="Path_373" class="st1" d="M154.3,181.6c-5,0-9.1-4.1-9.1-9.1c0,0,0,0,0,0v-18.2c0-15-12.2-27.2-27.2-27.2H45.4
			c-15,0-27.2,12.2-27.2,27.2v18.2c0,5-4.1,9.1-9.1,9.1c-5,0-9.1-4.1-9.1-9.1v-18.2c0-25.1,20.3-45.4,45.4-45.4h72.7
			c25.1,0,45.4,20.3,45.4,45.4v18.2C163.5,177.5,159.4,181.6,154.3,181.6C154.4,181.6,154.4,181.6,154.3,181.6"/>
		<path id="Path_374" class="st1" d="M81.7,90.8c-25.1,0-45.4-20.3-45.4-45.4S56.6,0,81.7,0c25.1,0,45.4,20.3,45.4,45.4v0
			C127.1,70.5,106.8,90.8,81.7,90.8 M81.7,18.2c-15,0-27.2,12.2-27.2,27.2s12.2,27.2,27.2,27.2S109,60.4,109,45.4
			C108.9,30.4,96.8,18.2,81.7,18.2"/>
		<path id="Path_375" class="st1" d="M178.5,40.7H262c6.3-0.2,11.2-5.4,11-11.6c-0.2-6-5-10.9-11-11h-83.5
			c-6.3,0.2-11.2,5.4-11,11.6C167.6,35.7,172.5,40.6,178.5,40.7"/>
		<path id="Path_376" class="st1" d="M196.3,149.9H262c6.3,0,11.3-5.1,11.3-11.3s-5.1-11.3-11.3-11.3l0,0h-65.8
			c-6.3,0-11.3,5.1-11.3,11.3S190,149.9,196.3,149.9"/>
		<path id="Path_377" class="st1" d="M163.4,96.7H262c6.3-0.2,11.2-5.4,11-11.6c-0.2-6-5-10.9-11-11h-98.6
			c-6.3,0.2-11.2,5.4-11,11.6C152.5,91.7,157.4,96.5,163.4,96.7"/>
	</g>
</g>
</svg>
