<?xml version="1.0" encoding="UTF-8"?><svg id="a" xmlns="http://www.w3.org/2000/svg" xmlns:xlink="http://www.w3.org/1999/xlink" viewBox="0 0 1110.76 641.73"><defs><style>.ak{fill:url(#t);}.al{clip-path:url(#ac);}.am{fill:#cd3836;}.an{fill:#92201e;}.ao{clip-path:url(#ah);}.ap{fill:url(#ae);}.aq{clip-path:url(#w);}.ar{clip-path:url(#d);}.as{fill:none;}.at{fill:#1a1818;}.au{clip-path:url(#r);}</style><clipPath id="d"><rect class="as" y=".33" width="1110.74" height="641.32"/></clipPath><clipPath id="r"><polygon class="as" points="459.01 197.7 493.03 227.1 617.52 119.25 652 149.17 527.67 256.87 562.24 286.68 721.02 149.17 618.04 59.99 459.01 197.7"/></clipPath><linearGradient id="t" x1="-18.32" y1="952.22" x2="-18.17" y2="952.22" gradientTransform="translate(760.53 34375.02) scale(41.52 -35.92)" gradientUnits="userSpaceOnUse"><stop offset="0" stop-color="#e11d39"/><stop offset="1" stop-color="#ea4433"/></linearGradient><clipPath id="w"><rect class="as" x=".02" width="1110.74" height="641.32"/></clipPath><clipPath id="ac"><polygon class="as" points="548.96 .33 321.14 197.61 561.78 406.05 789.67 208.6 755.52 179.02 562.1 346.56 390.12 197.61 583.57 30.08 548.96 .33"/></clipPath><linearGradient id="ae" x1="-14.59" y1="954.54" x2="-14.52" y2="954.54" gradientTransform="translate(1083.47 61567.59) scale(74.24 -64.29)" xlink:href="#t"/><clipPath id="ah"><rect class="as" y=".33" width="1110.74" height="641.32"/></clipPath></defs><path id="b" class="at" d="M0,519.54v122.12H129.09v-34.89H38.38v-8.73h90.71v-34.89H38.38v-8.72h90.71v-34.89H0Z"/><g><g id="c"><g class="ar"><g id="e"><path id="f" class="at" d="M143.05,519.53h76.75c13.02-.52,25.86,3.15,36.64,10.47,10.4,7.77,16.28,20.18,15.7,33.15,1.23,18.65-11.02,35.52-29.14,40.12-7.5,2.37-15.33,3.55-23.2,3.49h-38.38v34.88h-38.38v-122.11Zm38.38,34.89v17.44h43.62c3.43,.18,6.59-1.85,7.85-5.05,.56-1.08,.86-2.27,.87-3.49,.3-3.55-1.75-6.87-5.05-8.2-1.11-.45-2.29-.69-3.49-.69h-43.8Z"/><rect id="g" class="at" x="285.93" y="519.53" width="38.38" height="122.12"/><path id="h" class="at" d="M411.53,519.53c16.34-.46,32.49,3.52,46.75,11.51,14.79,8.6,24.53,23.8,26.17,40.83h-39.43c-3.49-9.77-12.62-15.47-27.38-17.1-2.03-.23-4.07-.34-6.11-.34-10.22-.77-20.33,2.55-28.09,9.24-4.54,4.44-7.01,10.58-6.8,16.92-.05,3.32,.57,6.61,1.84,9.68,1.05,2.58,2.55,4.95,4.45,6.99,1.87,1.89,4.05,3.45,6.45,4.61,2.21,1.14,4.52,2.08,6.9,2.8,2.26,.63,4.56,1.09,6.89,1.39,2.56,.35,4.33,.56,5.32,.63s2.01,.09,3.05,.09c10.62,.92,21.14-2.7,28.96-9.95,2.06-2.16,3.66-4.71,4.71-7.5h39.25c-2.68,23.5-16.11,39.26-40.3,47.28-10.53,3.44-21.55,5.14-32.62,5.05-17.69,.71-35.17-4.04-50.07-13.61-15.4-10.76-24.17-28.7-23.21-47.46-1.52-24.49,13.67-46.93,36.98-54.6,11.59-4.38,23.9-6.57,36.29-6.46"/><path id="i" class="at" d="M536.62,519.53h59.32l54.08,122.12h-42.09c-7.86-9.6-19.89-14.79-32.27-13.95h-44.98l-6.11,13.95h-42.04l54.09-122.12Zm29.66,27.77l-20.06,45.53h29.49c3.68,0,7.35,.23,10.99,.71l-20.42-46.24Z"/><path id="j" class="at" d="M660.51,519.53h76.75c13.02-.52,25.86,3.15,36.64,10.47,18.22,14.8,20.99,41.57,6.18,59.79-3.49,4.29-7.78,7.86-12.64,10.51,11.5,11.14,19.25,25.59,22.16,41.34h-39.95c-6.52-17.32-21.75-28.31-45.71-32.97-1.75-.35-3.43-.63-5.05-.87v33.83h-38.38v-122.11Zm38.38,34.89v17.44h43.62c3.47,.16,6.67-1.85,8.03-5.05,.45-1.11,.69-2.29,.7-3.49,.3-3.55-1.75-6.87-5.05-8.2-1.11-.45-2.29-.69-3.49-.69h-43.8Z"/><path id="k" class="at" d="M803.53,519.53h73.27c16.82-.52,33.44,3.71,47.96,12.22,16.65,10.5,26.33,29.19,25.29,48.85,0,26.86-12.27,45.06-36.81,54.6-11.64,4.41-24.01,6.6-36.46,6.46h-73.27v-122.12Zm38.38,34.89v52.34h34.89c10.62,.91,21.14-2.7,28.95-9.95,3.97-4.46,6.09-10.26,5.93-16.23,0-12.91-7.27-21.12-21.81-24.61-4.28-1.05-8.67-1.57-13.08-1.57l-34.89,.02Z"/><path id="l" class="at" d="M1010.78,519.53h53.01c12.18-.55,24.19,3.08,34.02,10.29,8.47,7.18,13.17,17.86,12.73,28.96h-38.38c0-2.06-1.46-3.82-3.49-4.18-.28-.1-.57-.16-.87-.17h-61.06c-1.99-.17-3.8,1.19-4.18,3.16,0,.41-.06,.82-.18,1.22-.13,2.04,1.3,3.85,3.32,4.19,.34,.11,.69,.17,1.04,.17h56.87c12.94-.77,25.7,3.34,35.76,11.51,15.06,15,15.11,39.38,.11,54.44-4.41,4.43-9.84,7.72-15.81,9.58-6.44,2-13.14,3-19.89,2.97h-52.68c-12.19,.59-24.21-3.04-34.02-10.29-8.61-7.1-13.39-17.82-12.91-28.96h38.56c.11,2.3,1.89,4.16,4.18,4.36h61.05c1.99,.16,3.79-1.19,4.19-3.16,.11-.4,.16-.81,.17-1.22,.17-1.99-1.19-3.8-3.16-4.18-.4-.11-.81-.17-1.22-.18h-56.86c-12.86,.75-25.54-3.3-35.59-11.36-7.79-7.13-12.01-17.36-11.51-27.91-1.03-17.12,10.49-32.48,27.21-36.29,6.33-2,12.93-3,19.56-2.97"/><path id="m" class="an" d="M652,149.17v36.35l-34.48-29.91v-36.34l34.48,29.91Z"/><path id="n" class="am" d="M583.57,30.08v36.35l-193.45,167.53v-36.35L583.57,30.08Z"/><path id="o" class="am" d="M617.52,119.25v36.35l-124.51,107.87v-36.35l124.51-107.87Z"/><path id="p" class="an" d="M493.03,227.13v36.35l-34.02-29.4v-36.35l34.02,29.4Z"/></g></g></g><g id="q" transform="translate(72.731 9.453)"><g class="au"><g id="s"><rect id="u" class="ak" x="459.01" y="59.99" width="262.01" height="226.68"/></g></g></g><g id="v"><g class="aq"><g id="x"><path id="y" class="am" d="M721.04,148.83v36.35l-158.75,137.51v-36.35l158.75-137.51Z"/><path id="a`" class="an" d="M562.27,286.34v36.35l-34.54-29.83v-36.32l34.54,29.8Z"/><path id="aa" class="am" d="M789.66,208.26v36.35l-227.85,197.45v-36.35l227.85-197.45Z"/></g></g></g><g id="ab" transform="translate(50.88)"><g class="al"><g id="ad"><rect id="af" class="ap" x="321.1" y=".33" width="468.54" height="405.72"/></g></g></g><g id="ag"><g class="ao"><g id="ai"><path id="aj" class="an" d="M561.78,406.04v36.35l-240.68-208.43v-36.35l240.68,208.43Z"/></g></g></g></g></svg>