<?xml version="1.0" encoding="utf-8"?>
<!-- Generator: Adobe Illustrator 26.2.1, SVG Export Plug-In . SVG Version: 6.00 Build 0)  -->
<svg version="1.1" id="Layer_1" xmlns="http://www.w3.org/2000/svg" xmlns:xlink="http://www.w3.org/1999/xlink" x="0px" y="0px"
	 viewBox="0 0 233.34 81.56" style="enable-background:new 0 0 233.34 81.56;" xml:space="preserve">
<style type="text/css">
	.st0{clip-path:url(#SVGID_00000028285421197734782390000018201085496161870998_);}
	.st1{fill:#BC2726;}
	.st2{fill:#0B0B0C;}
</style>
<g>
	<defs>
		<rect id="SVGID_1_" x="0.12" y="1.58" width="233.1" height="78.4"/>
	</defs>
	<clipPath id="SVGID_00000124130437759992220520000014232733558055766964_">
		<use xlink:href="#SVGID_1_"  style="overflow:visible;"/>
	</clipPath>
	<g id="Group_439" style="clip-path:url(#SVGID_00000124130437759992220520000014232733558055766964_);">
		<path id="Path_306" class="st1" d="M23.42,1.58c-0.02,3.69,0.41,7.36,0.74,11.02c0.53,6.02,1.18,12.04,2.15,18.01
			c0.19,1.2,0.47,2.39,0.65,3.59c0.09,0.62,0.35,0.83,0.99,0.88c2,0.15,1.98,0.18,2.35-1.8c1.34-7.52,2.22-15.11,2.63-22.73
			c-0.04-0.41,0.06-0.82,0.29-1.16c0.29,0.86,0.43,1.77,0.41,2.68c0.57,7.98,1.76,15.9,3.57,23.69c0.42,1.01,1.38,1.68,2.47,1.72
			c0.52-0.06,0.45-0.55,0.55-0.85c1.07-3.6,1.84-7.29,2.31-11.02c0.3-2.27,0.58-4.54,0.7-6.82c-0.01-0.39,0.15-0.76,0.44-1.01
			c0.14,1.09,0.28,2,0.37,2.91c0.67,6.79,1.31,13.58,2,20.37c0.09,0.88-0.15,1.24-0.99,1.59c-9.62,4-15.49,11.36-18.74,21.02
			c-1.54,4.85-2.51,9.87-2.88,14.94c-0.02,0.5-0.19,0.98-0.48,1.38c-0.16-1.36-0.29-2.49-0.41-3.6c-0.57-7.07-2.61-13.95-5.98-20.2
			c-3.46-6.18-8.94-10.98-15.52-13.6c-0.64-0.14-1.04-0.77-0.9-1.4c0-0.02,0.01-0.03,0.01-0.05c0.75-7.48,1.49-14.97,2.21-22.46
			c0.02-0.25-0.03-0.53,0.32-0.72c0.37,0.31,0.27,0.77,0.3,1.17c0.36,5.82,1.34,11.58,2.92,17.19c0.12,0.41,0,1.31,0.73,1.09
			c0.79-0.24,1.92-0.01,2.24-1.23c0.8-3.03,1.39-6.11,1.91-9.2c0.93-5.57,1.49-11.19,1.96-16.8c0.02-0.21-0.03-0.45,0.21-0.62
			c0.46,0.1,0.3,0.5,0.32,0.79c0.42,8.02,1.36,16.01,2.82,23.92c0.17,0.87,0.47,1.06,1.29,0.93c1.74-0.28,1.74-0.24,2.06-1.96
			c1.31-7.23,2.07-14.52,2.69-21.84c0.28-3.26,0.67-6.52,0.64-9.81L23.42,1.58z"/>
		<path id="Path_307" class="st2" d="M233.22,49.65c-2.33,4.07-6.04,7.17-10.45,8.75c-8.56,2.9-17.97-0.67-22.45-8.52
			c-2.95-6.01-1.31-13.26,3.94-17.42c3.56-2.94,8.03-4.53,12.65-4.5c4.44-0.04,8.88,0.01,13.32-0.02c0.95,0,1.04,0.21,0.64,1.04
			c-1.33,2.78-2.58,5.59-3.88,8.4c-0.14,0.3-0.15,0.83-0.65,0.76c-0.37-0.06-0.34-0.5-0.44-0.8c-0.92-3.23-3.87-5.45-7.22-5.45
			c-1.99,0.07-3.84,1.06-4.98,2.69c-1.25,1.74-2.01,3.79-2.19,5.93c-0.4,2.82-0.26,5.68,0.41,8.45c1.35,5.33,5.11,7.52,10.42,6.1
			c3.61-1.09,6.95-2.9,9.83-5.34c0.32-0.25,0.59-0.57,1.05-0.51L233.22,49.65z"/>
		<path id="Path_308" class="st2" d="M62.81,58.78c-0.35,0.22-0.77,0.3-1.18,0.24c-4.55,0-9.1,0-13.65,0
			c-0.32,0-0.77,0.16-0.92-0.14c-0.21-0.44,0.33-0.59,0.57-0.81c2.7-2.68,4.79-5.91,6.14-9.46c2.2-4.92,4.49-9.81,6.74-14.71
			c0.67-1.04,0.4-2.43-0.61-3.14c-0.98-0.84-2.11-1.5-3.31-1.96c-0.31-0.13-0.91-0.13-0.83-0.56c0.1-0.53,0.69-0.26,1.05-0.27
			c4.03-0.02,8.07,0.02,12.1-0.04c0.77-0.1,1.49,0.4,1.68,1.16c1.66,4,3.36,7.98,5.05,11.96c0.13,0.3,0.29,0.59,0.43,0.88
			c0.1-0.03,0.19-0.04,0.21-0.07c1.44-3.09,2.87-6.18,4.29-9.28c0.32-0.77,0.14-1.66-0.46-2.25c-0.58-0.67-1.29-1.23-2.07-1.64
			c-0.21-0.12-0.55-0.2-0.44-0.53c0.1-0.33,0.44-0.19,0.67-0.19c1.66-0.01,3.33,0,4.99,0c3.26,0,6.51,0,9.77,0.01
			c0.25,0,0.65-0.21,0.74,0.22c0.07,0.32-0.29,0.37-0.5,0.5c-1.58,0.68-2.32,2.51-1.64,4.09c0.05,0.11,0.1,0.21,0.16,0.32
			c2.8,6.7,5.63,13.39,8.51,20.06c0.94,1.97,2.28,3.73,3.94,5.15c0.16,0.15,0.43,0.27,0.37,0.5c-0.08,0.34-0.41,0.23-0.65,0.23
			c-5.36,0.01-10.73,0.01-16.09,0c-0.24,0-0.57,0.13-0.69-0.18c-0.14-0.35,0.23-0.4,0.41-0.53c1.9-1.07,2.6-3.48,1.55-5.4
			c-1.69-4.06-3.42-8.11-5.16-12.15c-0.09-0.21-0.09-0.58-0.4-0.61c-0.39-0.03-0.39,0.37-0.5,0.62c-3.01,6.53-6.03,13.06-9.05,19.59
			c-0.14,0.3-0.11,0.81-0.62,0.79c-0.51-0.02-0.48-0.52-0.61-0.83C70.03,53.9,67.29,47.45,64.55,41c-0.13-0.31-0.11-0.84-0.55-0.84
			c-0.37,0-0.37,0.49-0.5,0.77c-1.63,3.52-3.22,7.08-4.88,10.6c-0.66,1.27-0.5,2.82,0.39,3.94c0.77,0.99,1.69,1.86,2.73,2.57
			c0.31,0.24,0.62,0.46,1.04,0.76"/>
		<path id="Path_309" class="st2" d="M160.15,43.57c0.35-0.2,0.76-0.27,1.15-0.19c4.18,0,8.36,0.02,12.54-0.02
			c1.04-0.01,1.42,0.25,1.41,1.35c-0.05,6.64-0.02,13.29-0.02,19.93c0,0.15,0,0.3,0,0.44c-0.01,0.21,0.04,0.51-0.25,0.53
			s-0.31-0.23-0.36-0.46c-0.28-1.19-0.84-2.29-1.63-3.21c-1.89-2.62-5.16-3.85-8.3-3.14c-5.28,1.3-10.85,0.68-15.72-1.74
			c-5.63-2.55-9.04-8.37-8.49-14.53c0.33-4.5,2.77-8.57,6.57-10.99c3.3-2.34,7.25-3.59,11.3-3.57c4.47-0.04,8.95,0,13.43-0.02
			c0.83,0,1.06,0.12,0.66,0.98c-1.35,2.85-2.63,5.73-3.94,8.6c-0.12,0.26-0.17,0.62-0.53,0.62c-0.5,0-0.36-0.46-0.45-0.75
			c-1.01-3.86-4.93-6.2-8.81-5.25c-2.11,0.69-3.78,2.32-4.5,4.42c-1.9,4.62-1.88,9.8,0.06,14.41c1.23,3.45,4.95,5.32,8.45,4.24
			c0.92-0.28,1.41-0.66,1.34-1.75c-0.1-1.73-0.1-3.47-0.01-5.2c0.16-1.67-0.82-3.24-2.4-3.82c-0.55-0.16-1.06-0.46-1.47-0.86"/>
		<path id="Path_310" class="st2" d="M118.48,32.74c-1.93,4.2-3.73,8.12-5.56,12.04c-0.33,0.7,0.07,0.71,0.58,0.71
			c2.59-0.01,5.18-0.01,7.77,0c0.43-0.09,0.88,0,1.24,0.24c-7.08,2.5-9.7,7.82-9.6,14.91c-1.58-0.79-3-1.87-4.2-3.16
			c-1.73-1.77-3.25-3.72-4.54-5.84c-0.39-0.54-0.42-1.26-0.1-1.85c2.65-5.69,5.28-11.39,7.9-17.09c0.84-1.82,0.7-2.42-0.9-3.65
			c-0.23-0.18-0.5-0.32-0.73-0.5c-0.11-0.09-0.19-0.21-0.21-0.36c0.02-0.21,0.21-0.27,0.41-0.26c0.21,0,0.44,0,0.67,0
			c6.33,0,12.65,0,18.98,0c0.35,0,0.86-0.21,1.02,0.17c0.21,0.48-0.4,0.51-0.65,0.7c-1.16,0.78-1.54,2.31-0.88,3.55
			c2.93,6.96,5.89,13.91,8.88,20.85c0.89,1.83,2.12,3.47,3.63,4.83c0.22,0.22,0.64,0.37,0.49,0.77c-0.13,0.34-0.52,0.18-0.8,0.19
			C136.59,59,131.3,59,126.01,59c-0.28,0-0.65,0.13-0.81-0.18c-0.18-0.38,0.24-0.46,0.45-0.62c1.8-1.15,2.41-3.5,1.37-5.37
			c-1.84-4.4-3.73-8.78-5.59-13.17c-0.94-2.22-1.88-4.45-2.94-6.93"/>
		<path id="Path_311" class="st2" d="M188.1,59.03c-2.49,0-4.96,0-7.43,0c-0.24,0-0.57,0.14-0.7-0.15
			c-0.17-0.38,0.24-0.48,0.45-0.64c1.72-1.34,2.69-3.42,2.61-5.59c0.02-6.09,0.02-12.18,0-18.27c0.06-2.18-0.91-4.25-2.63-5.59
			c-0.21-0.17-0.62-0.25-0.46-0.64c0.13-0.31,0.46-0.16,0.69-0.16c4.96-0.01,9.91-0.01,14.87,0c0.24,0,0.57-0.12,0.7,0.17
			c0.13,0.28-0.18,0.43-0.37,0.58c-1.87,1.44-2.9,3.73-2.74,6.09c0,5.76,0,11.51,0,17.27c-0.19,2.43,0.86,4.8,2.8,6.29
			c0.16,0.12,0.45,0.21,0.33,0.49c-0.11,0.28-0.38,0.18-0.58,0.18c-2.51,0-5.03,0-7.55,0"/>
		<path id="Path_312" class="st2" d="M116.58,74.21h-3.05c0.46-2.64,0.46-5.33,0.01-7.97c0.98-0.07,1.97-0.09,2.96-0.04
			c-0.67,0.8-0.87,1.9-0.52,2.89c0.87,0.11,1.75,0.11,2.62,0c0.32-0.27,0.06-2.13-0.43-2.83h3c-0.6,2.6-0.64,5.29-0.12,7.9h-2.78
			c-0.14-0.38,0.41-0.45,0.41-0.8c0.02-0.8,0.39-1.88-0.14-2.3c-0.53-0.42-1.55-0.13-2.35-0.14c-0.16-0.02-0.3,0.09-0.32,0.25
			c0,0.03,0,0.06,0,0.09C115.92,72.22,115.58,73.26,116.58,74.21"/>
		<path id="Path_313" class="st2" d="M65.32,74.2h-3.17c-0.07-0.27,0.17-0.31,0.24-0.45c0.51-0.79,0.59-1.78,0.21-2.63
			c-0.44-0.6-1.66-0.15-2.53-0.18c-0.32-0.01-0.29,0.27-0.28,0.48c0.04,0.93-0.22,1.91,0.61,2.77h-2.93
			c0.46-2.62,0.45-5.31-0.03-7.93h2.84c0,0.41-0.49,0.55-0.47,0.94c0.04,0.64-0.35,1.62,0.16,1.84c0.82,0.2,1.67,0.23,2.51,0.1
			c0.24,0,0.23-0.24,0.23-0.41c0-0.84,0.13-1.72-0.75-2.45h3.28C64.45,68.86,64.47,71.63,65.32,74.2"/>
		<path id="Path_314" class="st2" d="M153.44,74.2h-2.85c0.91-2.69,0.12-5.51,0.54-8.45l5.21,4.88c-0.14-1.67,0.41-3.08-0.62-4.37
			h3.22c-0.58,0.38-0.88,1.06-0.78,1.74c0.02,1.92,0.01,3.83,0,5.75c0,0.23,0.17,0.54-0.16,0.68c-0.33,0.13-0.46-0.15-0.64-0.33
			c-1.44-1.36-2.88-2.73-4.44-4.06C153.04,71.39,152.38,72.81,153.44,74.2"/>
		<path id="Path_315" class="st2" d="M134,66.27c1.48,0,2.95-0.07,4.41,0.02c0.92,0.04,1.72,0.67,1.96,1.56
			c0.38,0.89,0.1,1.92-0.69,2.49c-0.48,0.33-0.3,0.56-0.1,0.87c0.57,1.03,1.22,2.01,1.95,2.93c-1.8,0.37-2.21,0.21-3.11-1.21
			c-0.59-0.93-1.18-1.87-1.76-2.8c-0.02-0.04-0.03-0.08-0.03-0.12c0.27-0.34,0.69-0.09,1.01-0.24c0.62-0.29,0.99-0.75,0.7-1.4
			c-0.31-0.58-0.99-0.86-1.61-0.65c-0.28,0.05-0.24,0.33-0.24,0.55c0,1.52,0,3.03,0,4.54c0.06,0.52,0.28,1.01,0.64,1.39h-3.17
			C134.68,71.6,134.69,68.87,134,66.27"/>
		<path id="Path_316" class="st2" d="M90.42,68.33c-0.48-0.25-0.97-0.46-1.48-0.64c-1.28-0.44-2.67,0.25-3.1,1.52
			c-0.02,0.04-0.03,0.09-0.04,0.13c-0.51,1.33,0.16,2.83,1.5,3.34c0.04,0.01,0.08,0.03,0.12,0.04c0.62,0.16,1.41,0.24,1.68-0.34
			c0.35-0.62,0.13-1.41-0.49-1.76c-0.06-0.04-0.13-0.07-0.19-0.09c-0.15-0.06-0.4-0.09-0.35-0.34c0.05-0.31,0.32-0.22,0.53-0.25
			c0.04,0,0.07,0,0.11,0c0.8,0.07,2.13-0.32,2.28,0.17c0.23,1.15,0.27,2.34,0.12,3.5c0,0.24-0.26,0.31-0.47,0.39
			c-1.45,0.58-3.07,0.62-4.55,0.1c-1.84-0.78-2.84-2.78-2.36-4.72c0.3-2.07,2.14-3.56,4.23-3.42c0.26,0,0.52,0.05,0.77,0.06
			c2.01,0.07,2.01,0.07,1.69,2.28"/>
		<path id="Path_317" class="st2" d="M168.33,68.39c-0.93-0.76-2.19-0.98-3.32-0.59c-1.15,0.54-1.72,1.84-1.34,3.05
			c0.09,1.12,1.03,1.98,2.16,1.96c0.41-0.02,1.08,0.12,1.21-0.48c0.21-0.57,0.04-1.22-0.43-1.61c-0.23-0.17-0.8-0.15-0.61-0.6
			c0.15-0.35,0.6-0.15,0.91-0.15c2.15-0.03,2.15-0.02,2.15,2.17c0,1.86,0,1.86-1.85,2.23c-3.33,0.64-5.83-1.27-5.69-4.35
			c0.03-2.16,1.76-3.92,3.92-4c0.33-0.01,0.66,0,0.99,0.02C168.48,66.15,168.48,66.15,168.33,68.39"/>
		<path id="Path_318" class="st2" d="M129.86,68.71v2.45c-0.52-0.25-1.09-0.36-1.66-0.33c-0.64,0.06-0.99,0.08-0.96,0.89
			c0.03,0.8,0.27,1.04,1.04,0.99c0.73-0.04,1.46,0.01,1.95-0.65c0.28,0.14,0.19,0.35,0.18,0.5c-0.04,1.68-0.04,1.68-1.69,1.68h-3.89
			c0.68-2.63,0.73-5.39,0.13-8.04c1.47,0,3.22,0,4.97,0c0.4,0,0.33,0.32,0.34,0.56c0,0.47,0,0.94,0,1.63
			c-0.61-0.53-1.42-0.76-2.22-0.63c-0.5-0.02-0.81,0.01-0.81,0.68c0,0.66,0.23,0.83,0.83,0.77c0.59-0.06,1.17,0.11,1.78-0.49"/>
		<path id="Path_319" class="st2" d="M73.74,68.68v2.57c-0.47-0.33-1.04-0.48-1.61-0.41c-0.71,0.01-1.04,0.11-1.01,0.94
			c0.01,0.87,0.41,0.95,1.1,0.92c0.73-0.03,1.48,0.07,1.94-0.72c0.1,0.16,0.17,0.22,0.17,0.28c-0.13,1.99-0.13,1.99-2.12,1.99h-3.39
			c0.52-2.65,0.54-5.38,0.08-8.05c1.41,0,3.11,0,4.79,0c0.36,0,0.56,0.12,0.53,0.51c0.04,0.55,0,1.1-0.14,1.63
			c-0.58-0.66-1.33-0.55-2.04-0.56c-0.48,0-0.9-0.11-0.91,0.68c-0.01,0.83,0.41,0.78,0.95,0.75C72.61,69.17,73.18,69.34,73.74,68.68
			"/>
		<path id="Path_320" class="st2" d="M102.19,74.21h-2.76c0.25-1.31,0.08-1.52-1.24-1.52h-0.66c-1.22,0-1.42,0.26-1.15,1.51h-2.56
			l3.74-7.84c0.11-0.22,0.14-0.55,0.45-0.55s0.34,0.33,0.44,0.56c0.98,2.13,1.96,4.26,2.95,6.38
			C101.6,73.2,101.87,73.63,102.19,74.21 M98.86,71.33l-0.98-2.35c-0.33,0.76-0.59,1.55-0.77,2.35H98.86z"/>
		<path id="Path_321" class="st2" d="M110.16,68.21c-0.42,0.07-0.56-0.38-0.91-0.4c-0.7-0.05-1.3-0.15-1.2,0.94
			c0.07,1.18,0.08,2.36,0.02,3.54c-0.07,0.7,0.2,1.4,0.73,1.86h-3.15c0.83-1.92,0.23-3.97,0.4-5.97c0.04-0.48-0.34-0.34-0.61-0.4
			c-0.52-0.1-0.87,0.29-1.32,0.48c-0.11-0.55-0.1-1.12,0.04-1.66c0.04-0.41,0.29-0.43,0.62-0.43c1.55,0,3.11,0.02,4.65,0
			c0.51-0.01,0.62,0.21,0.65,0.64c0.1,0.46,0.13,0.93,0.08,1.39"/>
		<path id="Path_322" class="st2" d="M49.13,74.16c0.53-0.37,0.82-1.01,0.74-1.66c-0.03-1.22,0-2.43,0-3.65
			c0-1.16-0.38-1.39-1.45-0.86c-0.16,0.08-0.3,0.18-0.48,0.29c-0.03-0.12-0.06-0.25-0.07-0.38c-0.02-1.71-0.02-1.71,1.66-1.71
			c1.07,0,2.15,0.04,3.21-0.01c0.79-0.04,1.28,0.1,1.18,1.04c-0.03,0.32,0.21,0.64,0.06,0.94c-0.31,0.21-0.41-0.1-0.58-0.18
			c-1.07-0.5-1.54-0.22-1.54,0.92c0,1.14,0,2.28,0,3.43c-0.1,0.74,0.24,1.46,0.87,1.85L49.13,74.16z"/>
		<path id="Path_323" class="st2" d="M144.74,66.24h2.63c-0.6,2.6-0.66,5.3-0.16,7.92h-2.53C145.01,71.53,145.03,68.87,144.74,66.24
			"/>
	</g>
</g>
</svg>
