<svg id="Group_735" data-name="Group 735" xmlns="http://www.w3.org/2000/svg" width="20.742" height="21.283" viewBox="0 0 20.742 21.283">
  <g id="Group_131" data-name="Group 131">
    <path id="Path_91" data-name="Path 91" d="M788.353,1543.308H768.837a.614.614,0,0,1-.341-1.125c.025-.018,2.98-2.146,2.98-9.248a7.119,7.119,0,1,1,14.239,0c0,7.1,2.955,9.23,2.984,9.251a.615.615,0,0,1-.345,1.122Zm-18.073-1.228h16.63c-1.036-1.365-2.424-4.13-2.424-9.145a5.891,5.891,0,1,0-11.783,0C772.7,1537.95,771.316,1540.715,770.28,1542.08Z" transform="translate(-768.223 -1525.815)" fill="#221f20"/>
  </g>
  <g id="Group_132" data-name="Group 132" transform="translate(7.882 18.975)">
    <path id="Path_92" data-name="Path 92" d="M783.546,1559.028a2.781,2.781,0,0,1-2.4-1.386.614.614,0,1,1,1.062-.616,1.554,1.554,0,0,0,2.689,0,.614.614,0,1,1,1.063.616A2.786,2.786,0,0,1,783.546,1559.028Z" transform="translate(-781.06 -1556.719)" fill="#221f20"/>
  </g>
</svg>
