<?xml version="1.0" encoding="utf-8"?>
<!-- Generator: Adobe Illustrator 26.2.1, SVG Export Plug-In . SVG Version: 6.00 Build 0)  -->
<svg version="1.1" id="Layer_1" xmlns="http://www.w3.org/2000/svg" xmlns:xlink="http://www.w3.org/1999/xlink" x="0px" y="0px"
	 viewBox="0 0 282.01 270.45" style="enable-background:new 0 0 282.01 270.45;" xml:space="preserve">
<path d="M278.09,67.96l-28.94-28.94l16.14-16.15c2.53-2.53,3.92-5.9,3.91-9.48s-1.4-6.95-3.93-9.47
	c-5.22-5.22-13.72-5.22-18.95,0.01L131.82,118.46c-15.56-10.87-34.48-16.15-53.52-14.91c-19.83,1.3-38.59,9.61-52.83,23.4
	c-33.21,32.16-34.06,85.36-1.87,118.6l0.76,0.77c15.75,15.56,36.62,24.12,58.76,24.12h0.13l2.5-0.01v-0.04
	c18.93-0.56,37.21-7.54,51.7-19.81c16.55-14.02,26.91-33.64,29.16-55.27c2.17-20.82-3.38-41.38-15.64-58.14l34.4-34.4l28.85,28.85
	l0.24,0.23c2.51,2.44,5.83,3.79,9.35,3.79c3.58,0,6.94-1.4,9.46-3.93l44.83-44.83C283.31,81.68,283.31,73.18,278.09,67.96z
	 M249.64,77.43l-25.87,25.87L204.3,83.83l25.87-25.87L249.64,77.43z M123.89,227.03c-10.74,10.81-25.05,16.79-40.28,16.84h-0.19
	c-15.17,0-29.44-5.88-40.19-16.57l-0.5-0.5c-10.32-10.69-16.01-24.76-16.02-39.62c-0.01-15.25,5.92-29.6,16.69-40.4
	c10.78-10.79,25.11-16.75,40.36-16.76c14.88,0,28.95,5.72,39.68,16.16l0.31,0.28C145.94,168.64,146.01,204.76,123.89,227.03z"/>
</svg>
