<?xml version="1.0" encoding="utf-8"?>
<!-- Generator: Adobe Illustrator 26.2.1, SVG Export Plug-In . SVG Version: 6.00 Build 0)  -->
<svg version="1.1" id="Layer_1" xmlns="http://www.w3.org/2000/svg" xmlns:xlink="http://www.w3.org/1999/xlink" x="0px" y="0px"
	 viewBox="0 0 233.34 86.14" style="enable-background:new 0 0 233.34 86.14;" xml:space="preserve">
<style type="text/css">
	.st0{clip-path:url(#SVGID_00000084496347533969130430000000736722724120080023_);}
	.st1{fill:#194378;}
	.st2{fill:#FEBD11;}
</style>
<g>
	<defs>
		<rect id="SVGID_1_" y="-0.1" width="233.34" height="86.24"/>
	</defs>
	<clipPath id="SVGID_00000097463798396144981330000012172015207514375058_">
		<use xlink:href="#SVGID_1_"  style="overflow:visible;"/>
	</clipPath>
	<g id="Group_200" style="clip-path:url(#SVGID_00000097463798396144981330000012172015207514375058_);">
		<path id="Path_128" class="st1" d="M186.25,66.08c-1.59,0.7-3.28,1.15-5.01,1.32c-0.52,0.04-0.42,0.4-0.38,0.71
			c0.15,1.03,0.28,2.07,0.5,3.08c0.14,0.67-0.03,0.96-0.61,1.38c-1.97,1.4-4.47,1.83-6.79,1.15c-4.98-1.11-10.04-1.91-15.07-2.79
			c-0.55-0.1-0.75-0.28-0.82-0.84c-0.01-0.85-0.16-1.7-0.45-2.51c-0.68,0.32-1.37,0.61-2.03,0.95c-0.48,0.25-0.74,0.23-0.99-0.32
			c-0.6-1.31-1.3-2.58-1.92-3.89c-0.23-0.48-0.46-0.8-0.99-0.36c-1.69,1.19-3.84,1.5-5.79,0.85c-4.26-0.78-8.54-1.44-12.81-2.12
			c-0.7-0.11-0.98-0.25-0.8-1.09c0.42-2,0.69-4.03,1.04-6.17c-1.34,0.7-2.54,1.39-3.84,1.91c-1.29,0.55-2.64,0.95-4.02,1.19
			c-0.68,0.11-0.82,0.39-0.82,1.01c0,3.71-0.07,7.42-0.04,11.14c0.04,0.57-0.28,1.11-0.81,1.33c-3.1,1.77-3.09,1.77-6.29,0.17
			c-7.84-3.91-15.67-7.82-23.5-11.74c-0.78-0.39-0.87-0.21-0.86,0.56c0.04,2.54,0,5.09,0.02,7.63c0,0.54-0.07,0.97-0.68,1.07
			c-0.4,0.12-0.77,0.32-1.08,0.6c-2.28,1.21-4.8,1.87-7.38,1.94c-3.05,0.48-6.12,0.88-9.18,1.36c-0.74,0.11-0.96-0.09-1-0.83
			c-0.08-1.58-0.26-3.16-0.42-4.93c-3.63,3.41-8.47,5.23-13.45,5.06c-4.98-0.22-9.54-2.87-12.18-7.1c0.49,1.93,0.99,3.86,1.48,5.79
			c0.42,1.67,0.83,3.35,1.32,5c0.19,0.64-0.05,0.87-0.51,1.24c-2.82,1.92-5.97,3.28-9.3,4.03l-7.63,2.41
			c-0.19,0.06-0.37,0.13-0.56,0.18c-1.63,0.42-2.08,0.2-2.74-1.31c-3.67-8.43-7.34-16.86-11.03-25.29
			c-1.45-3.32-2.88-6.65-4.28-9.98c-0.27-0.64-0.52-0.93-1.25-0.53c-0.79,0.42-1.67,0.69-2.48,1.08c-0.46,0.21-0.67,0.12-0.92-0.31
			c-3.23-5.5-6.47-11-9.73-16.48c-0.31-0.52-0.14-0.76,0.2-1.16c2.99-3.14,6.57-5.66,10.54-7.42c5.9-3.16,12.34-5.2,18.98-6.01
			c5.41-0.84,10.94-0.25,16.06,1.7c5.76,2.09,10.09,6.92,11.56,12.86c0.53,2.39,0.51,4.86-0.06,7.24c0.67-0.4,1.19-0.75,1.74-1.04
			c3.17-1.8,6.8-2.6,10.43-2.31c0.83,0.07,1.06-0.11,0.97-0.95c-0.16-1.37-0.11-1.37-1.46-1.03c-0.35,0.09-0.7,0.16-1.05,0.25
			c-1.3,0.31-1.31,0.31-1.37-0.97c-0.15-3.12-0.26-6.25-0.44-9.37c-0.05-0.51,0.24-1,0.72-1.2c2.69-1.51,5.57-2.66,8.56-3.43
			c5.1-1.57,10.19-3.17,15.27-4.81c0.74-0.24,1-0.14,0.9,0.67c-0.04,0.55-0.04,1.09-0.01,1.64c1.13-1.38,2.83-1.76,4.2-2.67
			c0.49-0.33,0.71,0.06,0.97,0.29c3.04,2.71,6.07,5.42,9.1,8.14c0.97,0.87,1.95,1.73,2.89,2.63c0.27,0.34,0.76,0.4,1.11,0.14
			c0.67-0.4,1.68-0.57,2-1.14c0.43-0.77-0.83-0.99-1.1-1.63c-0.07-0.18-0.16-0.35-0.27-0.51c-1.02-1.41-1.01-1.4,0.18-2.74
			c4.73-5.37,9.46-10.75,14.18-16.14c0.97-0.96,2.15-1.69,3.45-2.12c0.42-0.18,0.75-0.87,1.23-0.54c0.4,0.37,0.74,0.82,0.98,1.31
			c2.47,3.71,4.93,7.44,7.42,11.14c0.38,0.56,0.36,0.81-0.28,1.14c-3.47,1.8-6.91,3.65-10.36,5.49c-0.31,0.17-0.61,0.35-1.1,0.62
			c1.17,0.19,2.14,0.33,3.11,0.52c3.05,0.58,5.91,1.93,8.3,3.92c0.8,0.65,0.81,0.65,1-0.4c0.18-0.99,0.35-1.98,0.49-2.97
			c0.02-0.42,0.28-0.8,0.67-0.96c1.05-0.51,2.07-1.07,3.07-1.66c0.35-0.18,0.74-0.25,1.12-0.21c3.1,0,6.19,0,9.29,0.04
			c0.75,0.06,1.49-0.14,2.12-0.55c1.92-1.34,4.26-1.96,6.6-1.74c3.25,0.19,6.52,0.09,9.77,0.04c0.81-0.01,1.03,0.28,1.13,1.02
			c0.91,6.05,1.87,12.1,2.76,18.15c0.14,0.94,0.37,0.87,1.05,0.44c2.73-1.76,5.89-2.72,9.13-2.78c0.82,0,0.98-0.32,0.96-1.03
			c-0.07-2.97-0.08-5.94-0.15-8.89c-0.02-0.48,0.23-0.92,0.66-1.15c1.99-1.48,4.58-1.88,6.92-1.06c5.51,1.44,11.09,2.58,16.66,3.75
			c0.79,0.06,1.39,0.74,1.34,1.53c0.05,0.95,0.49,1.02,1.14,0.52c1.13-0.83,2.61-1.02,3.92-0.52c5.07,1.33,10.17,2.54,15.27,3.76
			c0.71,0.17,0.85,0.42,0.61,1.12c-5.72,16.89-11.41,33.78-17.09,50.68c-0.2,0.5-0.56,0.92-1.02,1.18
			c-2.01,1.53-4.73,1.77-6.98,0.61c-2.88-1.18-5.91-1.99-8.89-2.92c-0.6-0.18-0.84-0.42-0.82-1.06c0.04-1.27-0.04-2.54-0.04-3.82
			c0-0.42-0.1-0.58-0.58-0.65c-3.84-0.55-7.67-1.17-11.51-1.72c-0.59-0.08-0.75-0.21-0.66-0.83c0.25-1.67,0.42-3.36,0.6-5.04
			C186.27,66.7,186.27,66.39,186.25,66.08 M34.79,21.08c-3.72,0.06-7.41,0.58-11,1.56c-4.99,1.39-9.77,3.45-14.21,6.12
			c-0.58,0.34-0.59,0.64-0.28,1.16c1.84,3.08,3.65,6.16,5.44,9.26c0.28,0.49,0.58,0.62,1.1,0.35c0.95-0.5,1.94-0.92,2.89-1.43
			c0.6-0.33,0.92-0.24,1.18,0.41c0.58,1.42,1.2,2.82,1.82,4.21c4.95,11.16,9.9,22.32,14.84,33.48c0.13,0.56,0.68,0.91,1.24,0.78
			c0.1-0.02,0.19-0.06,0.27-0.1c1.84-0.62,3.7-1.2,5.55-1.8c1.94-0.62,1.89-0.27,1.3-2.58c-1.48-5.77-2.94-11.54-4.45-17.3
			c-0.25-0.65,0.06-1.39,0.71-1.66c1.84-1.1,3.55-2.42,5.09-3.92c2.7-2.56,4.81-5.68,6.16-9.15c1.11-2.63,1.34-5.55,0.65-8.33
			c-1.37-4.43-4.77-7.95-9.14-9.49c-2.95-1.04-6.06-1.57-9.19-1.57 M205.44,62.21c0.37,3.94,0.42,7.88,0.41,11.82
			c0,0.42,0,0.85,0.56,1.01c2.03,0.59,4.06,1.18,6.08,1.8c0.58,0.18,0.8-0.03,0.97-0.57c0.61-1.92,1.26-3.83,1.91-5.74
			c1.78-5.27,3.59-10.53,5.35-15.8c2.4-7.18,4.76-14.38,7.21-21.56c0.25-0.74,0.07-0.9-0.56-1.04c-2.41-0.54-4.81-1.14-7.23-1.66
			c-2.38-0.51-2.37-0.48-2.94,1.89c-1.3,5.33-2.61,10.67-3.93,15.99c-0.06,0.24-0.03,0.59-0.39,0.56s-0.29-0.37-0.35-0.61
			c-0.56-2.68-1.12-5.35-1.67-8.03c-0.82-3.98-1.63-7.97-2.43-11.95c-0.03-0.46-0.41-0.83-0.87-0.85c-0.93-0.13-1.85-0.37-2.77-0.56
			c-2.93-0.6-5.87-1.16-8.79-1.81c-1.75-0.39-1.42-0.27-1.51,1.16c-0.13,2.18-0.12,2.21,1.94,2.8c0.68,0.2,0.88,0.51,0.81,1.17
			c-0.17,1.55-0.23,3.12-0.47,4.66c-0.19,0.95,0.11,1.93,0.81,2.61c2.79,3.06,4.08,7.2,3.5,11.3c-0.51,4.69-2.79,9-6.38,12.06
			c-0.34,0.25-0.56,0.64-0.6,1.06c-0.12,1.52-0.3,3.04-0.49,4.56c-0.08,0.65,0.1,0.95,0.79,1.04c2,0.27,4,0.56,5.98,0.94
			c0.85,0.16,1.15-0.03,1.29-0.88c0.87-5.03,1.8-10.05,2.71-15.07c0.13-0.7,0.24-1.41,0.39-2.12c0.06-0.27,0.08-0.68,0.46-0.64
			c0.33,0.04,0.19,0.42,0.23,0.66c0.01,0.06,0.01,0.13,0,0.2c0,3.88,0,7.75,0,11.63 M88.09,33.01c-0.26-0.26-0.38-0.63-0.33-0.99
			c-0.2-3.74-0.4-7.48-0.59-11.22c-0.04-0.73-0.34-0.88-1.01-0.68c-3.52,1.06-7.05,2.1-10.58,3.13c-0.72,0.21-1.2,0.42-1.21,1.34
			c0,0.7-0.4,1.53,0.21,2s1.36,0,2.01-0.26c1.24-0.49,1.52-0.37,1.59,0.92c0.21,3.93,0.64,7.85,0.94,11.76
			c0.02,0.49,0.23,0.94,0.57,1.29c1.13,1.18,2.02,2.57,2.63,4.09c1.97,4.82,1.62,10.27-0.95,14.79c-0.34,0.55-0.52,1.2-0.5,1.85
			c0.14,1.59,0.31,3.18,0.36,4.77c0.03,0.91,0.4,1.1,1.22,0.97c1.93-0.3,3.87-0.58,5.81-0.8c0.81-0.09,1.08-0.4,1.06-1.23
			c-0.05-4.3-0.04-8.6-0.04-12.9c0-0.59,0.01-1.17,0.03-1.76c0.01-0.38,0.17-0.54,0.56-0.35c0.23,0.12,0.48,0.21,0.71,0.32
			c9.65,4.86,19.3,9.73,28.94,14.61c0.81,0.41,0.95,0.13,0.93-0.62c-0.07-2.08,0.06-4.17,0.04-6.25c0-1.01-0.29-1.32-1.21-1.39
			c-1.13-0.13-2.24-0.39-3.31-0.79c-4.07-1.31-7.53-4.06-9.71-7.74c-0.21-0.36-0.54-0.64-0.94-0.78c-3.6-1.43-7.18-2.91-10.79-4.32
			c-0.8-0.31-0.8-0.59-0.24-1.1c0.14-0.13,0.27-0.28,0.4-0.42c3.8-3.98,7.61-7.96,11.41-11.93c0.48-0.5,0.46-0.85-0.01-1.3
			c-2.63-2.48-5.25-4.96-7.85-7.48c-0.52-0.51-0.8-0.47-1.2,0.1c-1.93,2.72-3.89,5.43-5.85,8.13
			C90.16,30.19,89.12,31.59,88.09,33.01 M159.47,35.31h-0.23c-0.08-0.31-0.19-0.61-0.24-0.93c-0.68-3.82-1.38-7.62-2.02-11.44
			c-0.12-0.69-0.37-0.94-1.06-0.93c-2.67,0.02-5.34,0.02-8.01-0.03c-0.73-0.01-1.02,0.2-1.15,0.94c-1,5.84-2.02,11.67-3.08,17.5
			c-0.24,0.79,0.07,1.65,0.77,2.11c0.55,0.39,1,0.94,1.54,1.35c0.61,0.47,0.53,0.85,0.02,1.33c-1.13,1.08-2.21,2.21-3.33,3.3
			c-0.29,0.26-0.48,0.62-0.53,1.01c-0.36,2.22-0.71,4.43-1.15,6.64c-0.16,0.82,0.1,1.1,0.88,1.23c2.63,0.42,5.26,0.88,7.89,1.35
			c0.64,0.11,0.89-0.08,0.99-0.7c0.64-4.05,1.3-8.09,1.98-12.14c-0.01-0.62,0.18-1.22,0.54-1.72l5.73,12.32
			c1.38-2.88,2.5-5.68,3.63-8.48c0.1-0.25,0.08-0.67,0.45-0.65s0.32,0.44,0.36,0.7c0.46,3.12,0.91,6.24,1.37,9.37
			c0.36,2.44,0.75,4.88,1.1,7.33c0.07,0.53,0.31,0.69,0.81,0.76c2.76,0.4,5.53,0.87,8.29,1.27c1.47,0.21,1.41,0.15,1.25-1.34
			c-0.1-0.89-0.71-1.09-1.27-1.39c-4.91-2.66-7.84-7.91-7.54-13.48c0.22-4.03,1.76-7.88,4.38-10.95c0.32-0.36,0.44-0.86,0.34-1.33
			c-0.9-5.85-1.78-11.71-2.65-17.56c-0.1-0.65-0.33-0.88-0.99-0.87c-1.76,0.03-3.52,0.02-5.28-0.01c-0.64-0.01-0.94,0.16-1.05,0.82
			c-0.4,2.37-0.86,4.73-1.3,7.09c-0.47,2.52-0.94,5.04-1.41,7.56 M125.08,23.98c-2.02-0.02-4.03,0.31-5.94,0.98
			c-6.05,2.09-10.3,5.88-10.96,12.59c-0.85,6.24,2.93,12.17,8.94,14.03c3.81,1.21,7.91,1.21,11.72,0c4.09-1.04,7.85-3.11,10.91-6.02
			c0.51-0.49,0.55-0.82-0.03-1.33c-1.68-1.48-3.31-3.01-4.95-4.54c-0.86-0.8-0.97-0.83-1.77,0.04c-2.06,2.22-4.92,3.53-7.95,3.63
			c-0.26,0.02-0.56,0.09-0.67-0.22c-0.09-0.25,0.12-0.4,0.28-0.57c1.8-1.89,3.59-3.78,5.38-5.67c2.16-2.29,4.31-4.6,6.47-6.9
			c0.35-0.38,0.57-0.74,0.13-1.17c-0.47-0.49-0.97-0.95-1.5-1.38C132.29,25.18,128.73,23.95,125.08,23.98 M79.89,51.23
			c0.01-7.49-4.7-12.3-11.19-12.41c-8.36,0.12-15.32,6.46-16.21,14.77c-0.73,6.27,3.76,11.96,10.03,12.69
			c1.68,0.2,3.38,0.02,4.98-0.52c2.62-0.7,5.02-2.05,6.98-3.92C77.58,59.13,79.51,55.33,79.89,51.23 M182.21,62.19
			c2.46,0.06,4.88-0.57,7-1.83c5.21-2.65,8.44-8.06,8.31-13.91c-0.17-5.22-4.14-9.52-9.33-10.09c-7.67-0.59-14.66,4.4-16.61,11.84
			c-1.77,5.69,1.4,11.74,7.09,13.51c1.15,0.36,2.36,0.52,3.56,0.48 M133.13,11.86c-0.09-0.15-0.19-0.36-0.32-0.54
			c-1.08-1.49-2.22-2.96-3.24-4.49c-0.53-0.8-0.87-0.7-1.41-0.05c-2.77,3.31-5.55,6.62-8.35,9.9c-0.46,0.54-0.24,0.92,0.02,1.38
			c0.34,0.59,0.79,0.32,1.19,0.14c0.77-0.35,1.51-0.75,2.26-1.13c3.05-1.52,6.11-3.03,9.16-4.54
			C132.71,12.39,133.07,12.32,133.13,11.86 M104.25,42.44c-0.26-1.68-0.34-3.39-0.25-5.09c-1.22,1.16-2.22,2.12-3.24,3.09
			c-0.3,0.28-0.41,0.49,0.08,0.68C101.93,41.52,103.01,41.96,104.25,42.44"/>
		<path id="Path_129" class="st1" d="M225.51,82.13c-0.05,2.21-1.89,3.96-4.09,3.91c-2.14-0.05-3.86-1.77-3.91-3.91
			c0.05-2.21,1.89-3.96,4.09-3.91C223.74,78.28,225.46,80,225.51,82.13 M218.38,82.17c-0.08,1.69,1.23,3.12,2.92,3.2
			c0.09,0,0.17,0,0.26,0c1.72-0.01,3.1-1.41,3.09-3.13c0-0.02,0-0.05,0-0.07c0.06-1.73-1.28-3.18-3.01-3.24
			c-1.73-0.06-3.18,1.28-3.24,3.01c0,0.08,0,0.16,0,0.23"/>
		<path id="Path_130" class="st2" d="M34.79,21.08c3.13,0,6.24,0.53,9.19,1.57c4.38,1.54,7.77,5.06,9.14,9.49
			c0.69,2.77,0.46,5.69-0.65,8.33c-1.36,3.47-3.46,6.59-6.16,9.15c-1.54,1.5-3.25,2.82-5.09,3.92c-0.65,0.27-0.96,1-0.71,1.66
			c1.51,5.76,2.97,11.53,4.45,17.3c0.59,2.31,0.64,1.96-1.3,2.58c-1.85,0.59-3.71,1.17-5.55,1.8c-0.5,0.28-1.13,0.1-1.41-0.4
			c-0.05-0.09-0.08-0.18-0.1-0.27c-4.93-11.17-9.88-22.33-14.84-33.48c-0.62-1.4-1.24-2.8-1.82-4.22c-0.26-0.64-0.58-0.74-1.18-0.41
			c-0.94,0.52-1.94,0.93-2.89,1.43c-0.53,0.28-0.82,0.14-1.1-0.35c-1.8-3.09-3.62-6.18-5.44-9.26c-0.31-0.53-0.3-0.82,0.28-1.16
			c4.44-2.67,9.22-4.73,14.21-6.12c3.59-0.98,7.28-1.5,11-1.56 M46,39.83c0.24-2.7-1.4-5.21-3.97-6.08
			c-2.24-0.75-4.68-0.65-6.85,0.3c-0.55,0.14-0.88,0.69-0.75,1.24c0.02,0.08,0.05,0.16,0.09,0.23c0.34,1.02,0.59,2.06,0.9,3.09
			c1.01,3.33,2.03,6.65,3.06,9.97c0.21,0.64,0.59,0.92,1.23,0.39c0.57-0.47,1.21-0.88,1.79-1.34C44.19,45.91,45.87,43,46,39.83"/>
		<path id="Path_131" class="st2" d="M205.46,62.22V50.6c0.01-0.06,0.01-0.13,0-0.2c-0.04-0.24,0.1-0.61-0.23-0.66
			c-0.38-0.05-0.4,0.37-0.46,0.64c-0.15,0.7-0.26,1.41-0.39,2.12c-0.91,5.02-1.84,10.04-2.71,15.07c-0.15,0.85-0.45,1.04-1.29,0.88
			c-1.98-0.38-3.98-0.67-5.98-0.94c-0.69-0.09-0.87-0.39-0.79-1.04c0.19-1.52,0.36-3.04,0.49-4.56c0.04-0.42,0.26-0.81,0.6-1.06
			c3.59-3.06,5.87-7.37,6.38-12.06c0.57-4.1-0.71-8.24-3.51-11.3c-0.7-0.67-1-1.66-0.81-2.61c0.24-1.54,0.3-3.11,0.47-4.66
			c0.07-0.66-0.13-0.98-0.81-1.17c-2.06-0.59-2.07-0.62-1.94-2.8c0.09-1.42-0.24-1.54,1.51-1.16c2.92,0.65,5.86,1.21,8.79,1.81
			c0.92,0.19,1.84,0.42,2.77,0.56c0.47,0.03,0.84,0.4,0.87,0.87c0.81,3.98,1.62,7.97,2.43,11.95c0.55,2.68,1.11,5.35,1.67,8.03
			c0.05,0.24,0.01,0.59,0.35,0.61s0.33-0.33,0.39-0.56c1.31-5.33,2.62-10.66,3.93-15.99c0.58-2.37,0.57-2.4,2.94-1.89
			c2.42,0.52,4.82,1.12,7.23,1.66c0.64,0.14,0.81,0.3,0.56,1.04c-2.43,7.18-4.79,14.37-7.21,21.56c-1.77,5.27-3.57,10.53-5.35,15.8
			c-0.64,1.91-1.29,3.82-1.91,5.74c-0.17,0.54-0.39,0.74-0.97,0.57c-2.02-0.62-4.05-1.21-6.08-1.8c-0.55-0.16-0.56-0.57-0.55-1.01
			c0.02-3.94-0.04-7.88-0.41-11.82"/>
		<path id="Path_132" class="st2" d="M88.09,33.02c1.04-1.42,2.08-2.83,3.11-4.24c1.96-2.71,3.92-5.41,5.85-8.13
			c0.41-0.57,0.68-0.6,1.2-0.1c2.59,2.52,5.22,5,7.85,7.48c0.47,0.45,0.49,0.8,0.01,1.3c-3.82,3.96-7.62,7.93-11.41,11.93
			c-0.14,0.14-0.26,0.29-0.4,0.42c-0.56,0.51-0.56,0.79,0.24,1.1c3.6,1.41,7.19,2.88,10.79,4.32c0.4,0.14,0.73,0.42,0.94,0.78
			c2.18,3.68,5.64,6.43,9.71,7.74c1.07,0.4,2.18,0.66,3.31,0.79c0.92,0.08,1.2,0.38,1.21,1.39c0.01,2.08-0.11,4.17-0.04,6.25
			c0.03,0.75-0.11,1.03-0.93,0.62c-9.64-4.88-19.29-9.75-28.94-14.61c-0.23-0.12-0.48-0.21-0.71-0.32c-0.39-0.2-0.55-0.04-0.56,0.35
			c-0.02,0.59-0.03,1.17-0.03,1.76c0,4.3,0,8.6,0.04,12.9c0,0.83-0.26,1.14-1.06,1.23c-1.94,0.21-3.88,0.5-5.81,0.8
			c-0.81,0.13-1.19-0.06-1.22-0.97c-0.05-1.59-0.21-3.18-0.36-4.77c-0.02-0.65,0.16-1.3,0.5-1.85c2.57-4.53,2.92-9.98,0.95-14.79
			c-0.61-1.52-1.5-2.9-2.62-4.09c-0.34-0.34-0.55-0.8-0.57-1.29c-0.31-3.92-0.73-7.83-0.94-11.76c-0.07-1.3-0.35-1.41-1.59-0.92
			c-0.65,0.26-1.42,0.72-2.01,0.26s-0.21-1.3-0.21-2c0.01-0.9,0.49-1.13,1.21-1.34c3.53-1.02,7.06-2.07,10.58-3.13
			c0.67-0.2,0.97-0.05,1.01,0.68c0.18,3.74,0.39,7.48,0.59,11.22C87.72,32.39,87.84,32.76,88.09,33.02"/>
		<path id="Path_133" class="st2" d="M159.47,35.31c0.47-2.52,0.94-5.04,1.41-7.56c0.44-2.36,0.9-4.72,1.3-7.09
			c0.11-0.67,0.42-0.84,1.05-0.82c1.76,0.04,3.52,0.05,5.28,0.01c0.66-0.01,0.89,0.21,0.99,0.87c0.86,5.86,1.75,11.71,2.65,17.56
			c0.1,0.47-0.02,0.96-0.34,1.33c-2.63,3.07-4.17,6.92-4.38,10.95c-0.3,5.57,2.64,10.82,7.54,13.48c0.57,0.3,1.19,0.5,1.27,1.39
			c0.16,1.48,0.21,1.55-1.25,1.34c-2.77-0.4-5.53-0.86-8.29-1.27c-0.5-0.07-0.73-0.23-0.81-0.76c-0.35-2.45-0.74-4.89-1.1-7.33
			c-0.46-3.12-0.91-6.24-1.37-9.37c-0.04-0.27,0.02-0.68-0.36-0.7c-0.38-0.02-0.35,0.4-0.45,0.65c-1.13,2.8-2.25,5.61-3.63,8.48
			l-5.73-12.32c-0.36,0.5-0.55,1.1-0.54,1.72c-0.67,4.04-1.33,8.09-1.98,12.14c-0.1,0.64-0.36,0.82-0.99,0.7
			c-2.62-0.47-5.25-0.93-7.89-1.35c-0.77-0.12-1.03-0.41-0.88-1.23c0.42-2.2,0.78-4.42,1.14-6.64c0.06-0.39,0.25-0.74,0.53-1.01
			c1.12-1.09,2.2-2.22,3.33-3.3c0.51-0.49,0.59-0.86-0.02-1.33c-0.54-0.42-0.99-0.96-1.54-1.35c-0.69-0.46-1.01-1.31-0.77-2.11
			c1.05-5.83,2.08-11.66,3.08-17.5c0.13-0.74,0.42-0.95,1.15-0.94c2.67,0.05,5.34,0.05,8.01,0.03c0.69,0,0.95,0.25,1.06,0.93
			c0.64,3.82,1.34,7.63,2.02,11.44c0.06,0.31,0.16,0.62,0.24,0.93h0.23"/>
		<path id="Path_134" class="st2" d="M125.08,23.98c3.65-0.04,7.21,1.19,10.05,3.48c0.53,0.43,1.03,0.9,1.5,1.39
			c0.44,0.42,0.22,0.8-0.13,1.17c-2.16,2.29-4.31,4.6-6.47,6.9c-1.79,1.9-3.58,3.78-5.38,5.67c-0.16,0.17-0.37,0.32-0.28,0.57
			c0.12,0.32,0.42,0.24,0.67,0.22c3.03-0.11,5.89-1.42,7.95-3.64c0.8-0.87,0.91-0.84,1.77-0.04c1.64,1.53,3.27,3.06,4.95,4.54
			c0.58,0.51,0.54,0.84,0.03,1.33c-3.06,2.9-6.82,4.97-10.91,6.01c-3.81,1.21-7.91,1.21-11.72,0c-6.01-1.86-9.8-7.8-8.94-14.03
			c0.67-6.71,4.91-10.5,10.96-12.59C121.05,24.29,123.06,23.96,125.08,23.98 M115.45,37.14c-0.05,2.08,0.81,4.09,2.35,5.49
			c0.46,0.44,0.89,0.6,1.4,0.02c2.84-3.22,5.68-6.44,8.57-9.62c0.6-0.66,0.42-1.02-0.16-1.48c-2.19-1.88-5.3-2.27-7.89-0.99
			C117.09,31.68,115.4,34.28,115.45,37.14"/>
		<path id="Path_135" class="st2" d="M79.89,51.23c-0.37,4.1-2.31,7.9-5.4,10.61c-1.96,1.87-4.36,3.21-6.98,3.92
			c-5.99,2.02-12.47-1.2-14.49-7.19c-0.54-1.6-0.72-3.3-0.52-4.98c0.89-8.31,7.85-14.65,16.21-14.77
			C75.19,38.92,79.9,43.74,79.89,51.23 M67.72,42.01c-3.5-0.34-6.61,2.22-6.95,5.72c-0.06,0.64-0.03,1.3,0.11,1.93
			c0.78,2.82,3.28,4.82,6.2,4.97c2.91,0.24,5.66-1.38,6.85-4.05c0.76-1.59,0.71-3.45-0.13-4.99c-0.15,0.26-0.27,0.53-0.38,0.8
			c-0.72,2.3-3.16,3.58-5.46,2.86c-0.37-0.12-0.73-0.28-1.06-0.49c-1.68-0.88-2.34-2.95-1.46-4.64c0.15-0.29,0.34-0.55,0.56-0.78
			C66.56,42.86,67.13,42.42,67.72,42.01"/>
		<path id="Path_136" class="st2" d="M182.22,62.18c-5.96,0.19-10.94-4.48-11.13-10.43c-0.04-1.21,0.12-2.41,0.48-3.56
			c1.95-7.44,8.94-12.43,16.61-11.84c5.19,0.57,9.16,4.88,9.33,10.09c0.13,5.85-3.1,11.25-8.31,13.91c-2.11,1.26-4.54,1.9-7,1.83
			 M186.02,39.09c-1.44-0.35-2.96-0.13-4.24,0.61c-3.03,1.4-4.35,4.99-2.95,8.02c0.32,0.7,0.78,1.33,1.34,1.86
			c1.91,1.98,4.81,2.64,7.39,1.7c3.18-0.96,5.04-4.24,4.24-7.46c-0.07-0.24-0.04-0.57-0.39-0.59c-0.29,0-0.29,0.29-0.36,0.5
			c-0.71,2.18-3.06,3.37-5.24,2.66c-0.03-0.01-0.06-0.02-0.09-0.03c-1.53-0.38-2.68-1.66-2.9-3.23c-0.14-1.4,0.6-2.75,1.85-3.39
			c0.43-0.26,0.89-0.48,1.37-0.65"/>
		<path id="Path_137" class="st2" d="M133.13,11.86c-0.07,0.46-0.42,0.53-0.7,0.67c-3.05,1.52-6.11,3.03-9.16,4.54
			c-0.75,0.38-1.5,0.78-2.26,1.13c-0.39,0.18-0.85,0.45-1.19-0.14c-0.27-0.46-0.48-0.85-0.02-1.38c2.81-3.28,5.59-6.58,8.36-9.9
			c0.54-0.64,0.88-0.75,1.41,0.05c1.02,1.54,2.16,3,3.24,4.49C132.94,11.5,133.04,11.7,133.13,11.86"/>
		<path id="Path_138" class="st1" d="M45.99,39.82c-0.13,3.18-1.81,6.09-4.5,7.79c-0.59,0.46-1.22,0.87-1.79,1.34
			c-0.64,0.53-1.03,0.26-1.23-0.39c-1.03-3.32-2.05-6.64-3.06-9.97c-0.31-1.03-0.56-2.07-0.9-3.09c-0.26-0.5-0.07-1.12,0.43-1.38
			c0.07-0.04,0.15-0.07,0.23-0.09c2.17-0.95,4.61-1.06,6.85-0.3C44.59,34.62,46.23,37.13,45.99,39.82 M40.47,44.32
			c0.45-0.21,0.87-0.47,0.89-0.82c0.24-1.19,0.29-2.42,0.12-3.63c-0.32-1.18-1.31-2.06-2.52-2.24c-0.41-0.04-0.55,0.07-0.42,0.47
			C39.17,40.17,39.81,42.23,40.47,44.32"/>
		<path id="Path_139" class="st1" d="M115.45,37.15c-0.04-2.86,1.64-5.46,4.27-6.58c2.59-1.28,5.7-0.89,7.89,0.99
			c0.59,0.45,0.75,0.82,0.16,1.48c-2.89,3.18-5.73,6.4-8.57,9.62c-0.51,0.58-0.94,0.42-1.4-0.02
			C116.26,41.24,115.4,39.24,115.45,37.15 M118.63,39.51c1.57-1.77,3.03-3.43,4.5-5.07c0.45-0.5,0.06-0.6-0.29-0.67
			c-1.06-0.19-2.15-0.14-3.18,0.16c-0.31,0.1-0.58,0.31-0.75,0.6C117.9,36.02,117.79,37.93,118.63,39.51"/>
		<path id="Path_140" class="st1" d="M67.72,42.01c-0.6,0.41-1.17,0.85-1.72,1.32c-1.31,1.37-1.26,3.55,0.12,4.86
			c0.23,0.22,0.5,0.41,0.78,0.56c2.02,1.3,4.72,0.71,6.02-1.31c0.21-0.33,0.38-0.68,0.49-1.06c0.1-0.28,0.23-0.55,0.38-0.8
			c0.84,1.55,0.89,3.4,0.13,4.99c-1.19,2.67-3.94,4.29-6.85,4.05c-2.92-0.15-5.41-2.16-6.2-4.97c-0.72-3.44,1.47-6.81,4.91-7.54
			C66.43,41.99,67.08,41.95,67.72,42.01"/>
		<path id="Path_141" class="st1" d="M186.02,39.1c-0.47,0.18-0.93,0.39-1.37,0.65c-1.26,0.64-1.99,1.99-1.85,3.39
			c0.22,1.57,1.37,2.84,2.9,3.23c2.17,0.76,4.54-0.37,5.3-2.54c0.01-0.03,0.02-0.06,0.03-0.09c0.07-0.21,0.07-0.5,0.36-0.5
			c0.35,0,0.32,0.35,0.39,0.59c0.8,3.22-1.07,6.5-4.24,7.46c-2.58,0.95-5.48,0.28-7.39-1.7c-2.43-2.29-2.54-6.11-0.25-8.54
			c0.53-0.56,1.16-1.02,1.86-1.34c1.28-0.75,2.8-0.97,4.24-0.61"/>
		<path id="Path_142" class="st1" d="M222.27,82.52c0.29,0.46,0.57,0.85,0.79,1.27c0.09,0.17,0.5,0.4,0.09,0.61
			c-0.24,0.13-0.55,0.03-0.67-0.21c0,0,0,0,0,0c-0.28-0.47-0.58-0.94-0.85-1.41c-0.11-0.24-0.39-0.37-0.65-0.29
			c-0.33,0.07-0.21,0.35-0.22,0.55c-0.02,0.32-0.01,0.65,0,0.97c0,0.28-0.1,0.41-0.39,0.42c-0.29,0.01-0.39-0.14-0.39-0.41
			c0-1.23,0-2.46,0-3.7c0-0.25,0.06-0.46,0.36-0.45c0.71,0,1.42,0.03,2.12,0.11c0.51,0.07,0.88,0.51,0.88,1.02
			c0.14,0.7-0.32,1.38-1.02,1.52C222.3,82.52,222.29,82.52,222.27,82.52 M221.51,81.84c0.42-0.03,0.99,0.07,1.01-0.59
			c0.02-0.79-0.64-0.64-1.12-0.71c-0.54-0.09-0.64,0.18-0.65,0.66C220.71,81.81,221.01,81.9,221.51,81.84"/>
	</g>
</g>
</svg>
