<?xml version="1.0" encoding="utf-8"?>
<!-- Generator: Adobe Illustrator 26.3.1, SVG Export Plug-In . SVG Version: 6.00 Build 0)  -->
<svg version="1.1" id="Layer_1" xmlns="http://www.w3.org/2000/svg" xmlns:xlink="http://www.w3.org/1999/xlink" x="0px" y="0px"
	 viewBox="0 0 99.2 110.7" style="enable-background:new 0 0 99.2 110.7;" xml:space="preserve">
<g>
	<path id="Path_103" d="M95.5,110.7c-2,0-3.7-1.7-3.7-3.7V95.5c0-10.6-8.6-19.3-19.3-19.3H26.7C16,76.3,7.4,84.9,7.4,95.5V107
		c0,2-1.7,3.7-3.7,3.7S0,109.1,0,107V95.5c0-14.7,11.9-26.6,26.7-26.7h45.9c14.7,0,26.6,11.9,26.7,26.7V107
		C99.2,109.1,97.6,110.7,95.5,110.7z"/>
	<g id="Group_151" transform="translate(6.721 0.5)">
		<path id="Path_104" d="M42.9,52.8c-14.7,0-26.7-11.9-26.7-26.7c0-14.7,11.9-26.7,26.7-26.7c14.7,0,26.7,11.9,26.7,26.7l0,0
			C69.5,40.9,57.6,52.8,42.9,52.8z M42.9,6.9c-10.6,0-19.3,8.6-19.3,19.3c0,10.6,8.6,19.3,19.3,19.3c10.6,0,19.3-8.6,19.3-19.3
			C62.2,15.5,53.5,6.9,42.9,6.9z"/>
	</g>
</g>
</svg>
