<?xml version="1.0" encoding="utf-8"?>
<!-- Generator: Adobe Illustrator 26.2.1, SVG Export Plug-In . SVG Version: 6.00 Build 0)  -->
<svg version="1.1" id="Layer_1" xmlns="http://www.w3.org/2000/svg" xmlns:xlink="http://www.w3.org/1999/xlink" x="0px" y="0px"
	 viewBox="0 0 178.79 128.17" style="enable-background:new 0 0 178.79 128.17;" xml:space="preserve">
<style type="text/css">
	.st0{clip-path:url(#SVGID_00000028310396779780505920000005833283894620314762_);}
	.st1{fill:#616060;}
	.st2{fill:none;}
</style>
<g id="Group_455" transform="translate(0 0)">
	<g>
		<defs>
			<rect id="SVGID_1_" y="12.88" width="102.78" height="102.78"/>
		</defs>
		<clipPath id="SVGID_00000071559349843789472170000010370604382049097895_">
			<use xlink:href="#SVGID_1_"  style="overflow:visible;"/>
		</clipPath>
		<g id="Group_454" style="clip-path:url(#SVGID_00000071559349843789472170000010370604382049097895_);">
			<g id="Path_338">
				<path class="st1" d="M46.33,105.54C20.78,105.54,0,84.75,0,59.21s20.78-46.33,46.33-46.33s46.33,20.78,46.33,46.33
					S71.88,105.54,46.33,105.54z M46.33,24.49c-19.15,0-34.72,15.58-34.72,34.72s15.58,34.72,34.72,34.72
					c19.14,0,34.72-15.58,34.72-34.72S65.47,24.49,46.33,24.49z"/>
			</g>
			<g id="Line_18">
				<path class="st1" d="M96.98,115.66c-1.49,0-2.97-0.57-4.1-1.7L70.84,91.92c-2.27-2.27-2.27-5.94,0-8.21
					c2.27-2.27,5.94-2.27,8.21,0l22.03,22.04c2.27,2.27,2.27,5.94,0,8.21C99.95,115.09,98.46,115.66,96.98,115.66z"/>
			</g>
		</g>
	</g>
</g>
<rect x="0.4" y="35.84" class="st2" width="178.38" height="47.19"/>
</svg>
