<?xml version="1.0" encoding="utf-8"?>
<!-- Generator: Adobe Illustrator 26.2.1, SVG Export Plug-In . SVG Version: 6.00 Build 0)  -->
<svg version="1.1" id="Layer_1" xmlns="http://www.w3.org/2000/svg" xmlns:xlink="http://www.w3.org/1999/xlink" x="0px" y="0px"
	 viewBox="0 0 438.74 437.08" style="enable-background:new 0 0 438.74 437.08;" xml:space="preserve">
<style type="text/css">
	.st0{fill:#E22836;}
</style>
<g id="Group_149_00000114053467296439706360000009393920856826401214_" transform="translate(0 0)">
	<g id="Group_147_00000155853091783316750440000008840119810222525839_" transform="translate(11.134 11.134)">
		<path id="Path_101_00000007416124481263074740000013166028145673527997_" class="st0" d="M208.72,276.63
			c-38.46,0.01-69.64-31.16-69.65-69.62c-0.01-38.46,31.16-69.64,69.62-69.64c38.46-0.01,69.64,31.16,69.65,69.62
			C278.3,245.42,247.16,276.57,208.72,276.63z M208.72,164.27c-23.59-0.01-42.73,19.11-42.73,42.71
			c-0.01,23.59,19.11,42.73,42.71,42.73c23.59,0.01,42.73-19.11,42.73-42.71c0-0.01,0-0.02,0-0.03
			C251.4,183.41,232.3,164.3,208.72,164.27z"/>
	</g>
	<g id="Group_148_00000129905413831256776750000002145024201101698970_">
		<path id="Path_102_00000158710997420897474220000017268058007177304759_" class="st0" d="M221.35,437.58
			c-28.1-0.03-50.87-22.8-50.9-50.9v-1.7c-0.25-7.06-4.78-13.26-11.44-15.65c-6.67-3.23-14.65-1.97-19.99,3.16l-1.09,1.08
			c-9.51,9.56-22.44,14.92-35.93,14.88l0,0c-28.13,0.01-50.94-22.79-50.94-50.91c0-13.5,5.35-26.46,14.9-36.01l1.21-1.2
			c6.67-7.15,6.29-18.35-0.86-25.03c-3.21-3-7.42-4.7-11.82-4.76h-3.22c-28.12,0.45-51.28-21.97-51.73-50.09
			c-0.45-28.12,21.97-51.28,50.09-51.73c0.55-0.01,1.09-0.01,1.64,0h1.68c7.06-0.23,13.27-4.76,15.65-11.41
			c3.25-6.68,1.99-14.68-3.16-20.04l-0.97-0.97c-20.13-19.65-20.51-51.89-0.86-72.02s51.89-20.51,72.02-0.86
			c0.26,0.25,0.51,0.5,0.76,0.76l1.12,1.12c5.07,4.98,12.68,6.35,19.17,3.44c1.13-0.5,2.32-0.84,3.54-1.01
			c5.35-3.12,8.65-8.83,8.68-15.02v-3.14c0.46-28.12,23.63-50.54,51.74-50.08c27.47,0.45,49.63,22.61,50.08,50.08v1.7
			c0.16,9.77,8.22,17.56,17.99,17.39c4.46-0.08,8.73-1.83,11.95-4.92l1.02-1.01c20.09-19.69,52.33-19.37,72.02,0.72
			c19.39,19.78,19.41,51.44,0.05,71.25l0,0l-0.08,0.08l-1.13,1.12c-4.9,5.08-6.22,12.64-3.32,19.08c0.49,1.13,0.83,2.32,1.01,3.54
			c3.12,5.34,8.83,8.64,15.02,8.67h3.12c28.12,0.04,50.89,22.86,50.85,50.98c-0.04,28.07-22.78,50.81-50.85,50.85h-1.68
			c-6.94,0.03-13.19,4.18-15.92,10.56v0.15c-2.91,6.51-1.53,14.15,3.49,19.23l0.97,0.97c19.92,19.86,19.96,52.11,0.1,72.02
			c-9.55,9.57-22.51,14.96-36.04,14.96l0,0c-13.32,0.04-26.13-5.18-35.62-14.53l-0.4-0.39l-1.12-1.12
			c-7.1-6.71-18.3-6.39-25.01,0.71c-3.05,3.22-4.77,7.48-4.83,11.91v3.15C272.27,414.78,249.47,437.57,221.35,437.58z
			 M151.12,340.57c6.19,0,12.31,1.3,17.98,3.81c16.77,6.38,27.97,22.33,28.26,40.27v2.02c0,13.25,10.74,23.99,23.99,23.99
			c13.25,0,23.99-10.74,23.99-23.99l0,0v-3.19c0.16-24.63,20.26-44.47,44.9-44.31c11.51,0.08,22.54,4.59,30.79,12.61l0.89,0.87
			l0.36,0.36c4.49,4.5,10.59,7.03,16.95,7.01l0,0c6.37,0.02,12.48-2.51,16.97-7.04c9.37-9.39,9.37-24.59,0-33.98l-1.08-1.06
			c-17.24-17.6-16.95-45.84,0.64-63.08c8.25-8.09,19.33-12.66,30.88-12.74h1.72c13.26-0.03,23.98-10.79,23.96-24.05
			c-0.03-13.22-10.74-23.93-23.96-23.96h-3.18c-17.7-0.07-33.68-10.64-40.65-26.91c-0.55-1.28-0.9-2.65-1.04-4.04
			c-5.91-16.04-2.03-34.04,9.96-46.22l1.26-1.25l0,0c9.37-9.39,9.36-24.6-0.03-33.97c-9.39-9.37-24.6-9.35-33.97,0.03l0,0
			l-1.12,1.12c-17.62,17.22-45.86,16.9-63.08-0.72c-8.06-8.25-12.61-19.3-12.7-30.83v-1.75c-0.32-13.25-11.32-23.74-24.57-23.43
			c-12.81,0.31-23.12,10.62-23.43,23.43v3.19c-0.07,17.7-10.64,33.67-26.91,40.65c-1.28,0.55-2.65,0.9-4.04,1.04
			c-16.04,5.91-34.04,2.03-46.22-9.97l-1.18-1.17c-9.36-9.41-24.58-9.45-33.99-0.08c-4.53,4.51-7.08,10.63-7.08,17.02
			c-0.02,6.37,2.52,12.48,7.05,16.97l1.08,1.08c12.84,12.94,16.42,32.43,9.03,49.09c-6.36,16.79-22.33,27.99-40.29,28.26h-2.02
			c-13.25-0.31-24.25,10.18-24.56,23.43c-0.31,13.26,10.18,24.25,23.43,24.56c0.38,0.01,0.75,0.01,1.13,0h3.19
			c24.64,0.17,44.48,20.28,44.31,44.92c-0.08,11.49-4.59,22.5-12.58,30.75l-1.35,1.28c-9.35,9.42-9.29,24.64,0.13,33.99
			c4.5,4.46,10.58,6.97,16.92,6.97l0,0c6.37,0.02,12.47-2.52,16.95-7.04l1.2-1.18C128.32,345.15,139.49,340.56,151.12,340.57
			L151.12,340.57z M358.43,274.31L358.43,274.31z"/>
	</g>
</g>
</svg>
