<?xml version="1.0" encoding="utf-8"?>
<!-- Generator: Adobe Illustrator 26.2.1, SVG Export Plug-In . SVG Version: 6.00 Build 0)  -->
<svg version="1.1" id="Layer_1" xmlns="http://www.w3.org/2000/svg" xmlns:xlink="http://www.w3.org/1999/xlink" x="0px" y="0px"
	 viewBox="0 0 438.84 437.08" style="enable-background:new 0 0 438.84 437.08;" xml:space="preserve">
<style type="text/css">
	.st0{fill:#060707;}
</style>
<g id="Group_149" transform="translate(0 0)">
	<g id="Group_147" transform="translate(11.134 11.134)">
		<path id="Path_101" class="st0" d="M208.77,276.5c-38.38,0.01-69.51-31.1-69.52-69.49c-0.01-38.38,31.1-69.51,69.49-69.51
			c38.38-0.01,69.51,31.1,69.52,69.49C278.21,245.34,247.13,276.44,208.77,276.5z M208.77,164.35
			c-23.55-0.01-42.65,19.08-42.65,42.63c-0.01,23.55,19.08,42.65,42.63,42.65c23.55,0.01,42.65-19.08,42.65-42.63
			c0-0.01,0-0.02,0-0.03C251.37,183.45,232.3,164.38,208.77,164.35z"/>
	</g>
	<g id="Group_148">
		<path id="Path_102" class="st0" d="M221.39,437.17c-28.05-0.03-50.78-22.76-50.81-50.81v-1.69c-0.25-7.05-4.77-13.24-11.42-15.62
			c-6.66-3.22-14.62-1.97-19.96,3.16l-1.09,1.07c-9.49,9.54-22.4,14.89-35.86,14.85l0,0c-28.07,0.01-50.84-22.74-50.85-50.82
			c0-13.48,5.34-26.41,14.87-35.94l1.21-1.2c6.66-7.13,6.28-18.32-0.86-24.98c-3.21-2.99-7.41-4.69-11.8-4.75h-3.21
			C23.57,270.89,0.45,248.51,0,220.45c-0.45-28.06,21.93-51.18,49.99-51.63c0.55-0.01,1.09-0.01,1.64,0h1.68
			c7.05-0.23,13.24-4.75,15.62-11.39c3.24-6.67,1.98-14.65-3.16-20l-0.97-0.97c-20.09-19.61-20.47-51.8-0.86-71.88
			s51.8-20.47,71.88-0.86c0.26,0.25,0.51,0.5,0.76,0.76l1.11,1.11c5.07,4.97,12.66,6.34,19.14,3.44c1.13-0.5,2.31-0.83,3.53-1.01
			c5.34-3.11,8.63-8.81,8.66-14.99V49.9c0.46-28.06,23.58-50.44,51.65-49.98c27.42,0.45,49.53,22.57,49.98,49.98v1.69
			c0.16,9.75,8.2,17.53,17.96,17.36c4.45-0.08,8.71-1.83,11.93-4.91l1.02-1.01c20.05-19.65,52.23-19.33,71.89,0.72
			c19.36,19.75,19.38,51.35,0.05,71.12l0,0l-0.08,0.08l-1.13,1.11c-4.89,5.07-6.21,12.61-3.32,19.04c0.49,1.13,0.83,2.31,1.01,3.53
			c3.12,5.33,8.81,8.62,14.99,8.65h3.12c28.07,0.04,50.79,22.82,50.75,50.89c-0.04,28.01-22.74,50.72-50.75,50.75h-1.68
			c-6.92,0.03-13.17,4.18-15.89,10.54v0.15c-2.91,6.5-1.52,14.12,3.48,19.19l0.97,0.97c19.88,19.83,19.92,52.01,0.1,71.89
			c-9.53,9.56-22.47,14.93-35.97,14.94l0,0c-13.3,0.04-26.08-5.17-35.55-14.5l-0.4-0.39l-1.11-1.11c-7.09-6.7-18.27-6.38-24.97,0.71
			c-3.04,3.22-4.76,7.46-4.82,11.89v3.14C272.22,414.41,249.46,437.16,221.39,437.17z M151.3,340.35c6.18,0,12.29,1.3,17.94,3.8
			c16.74,6.36,27.92,22.29,28.2,40.2v2.01c0,13.23,10.72,23.95,23.95,23.95c13.23,0,23.95-10.72,23.95-23.95l0,0v-3.18
			c0.16-24.59,20.22-44.39,44.81-44.23c11.49,0.08,22.5,4.59,30.73,12.59l0.89,0.87l0.36,0.36c4.48,4.5,10.57,7.02,16.92,7l0,0
			c6.36,0.02,12.46-2.51,16.94-7.02c9.35-9.37,9.35-24.54,0-33.91l-1.07-1.06c-17.21-17.56-16.92-45.75,0.64-62.96
			c8.24-8.07,19.29-12.63,30.83-12.72h1.72c13.23-0.03,23.94-10.77,23.91-24.01c-0.03-13.2-10.72-23.89-23.91-23.91h-3.17
			c-17.67-0.07-33.61-10.62-40.57-26.86c-0.55-1.28-0.9-2.64-1.03-4.03c-5.9-16.01-2.03-33.98,9.94-46.13l1.26-1.25l0,0
			c9.35-9.37,9.34-24.55-0.03-33.91c-9.37-9.35-24.55-9.34-33.9,0.03l0,0l-1.11,1.11c-17.58,17.19-45.77,16.86-62.96-0.72
			c-8.05-8.23-12.59-19.26-12.68-30.77V49.9c-0.32-13.23-11.3-23.7-24.52-23.38c-12.78,0.3-23.08,10.6-23.38,23.38v3.18
			c-0.07,17.67-10.62,33.61-26.86,40.57c-1.28,0.55-2.64,0.9-4.03,1.03c-16.01,5.9-33.98,2.02-46.13-9.95l-1.18-1.17
			c-9.34-9.39-24.53-9.43-33.92-0.08c-4.52,4.5-7.06,10.61-7.07,16.99c-0.02,6.36,2.52,12.46,7.04,16.94l1.07,1.07
			c12.81,12.91,16.39,32.37,9.01,48.99c-6.35,16.76-22.29,27.94-40.21,28.2h-2.01c-13.23-0.31-24.2,10.16-24.52,23.39
			c-0.31,13.23,10.16,24.21,23.39,24.52c0.38,0.01,0.75,0.01,1.13,0h3.18c24.6,0.17,44.4,20.25,44.23,44.84
			c-0.08,11.47-4.58,22.46-12.56,30.69l-1.34,1.28c-9.33,9.4-9.27,24.59,0.13,33.92c4.49,4.46,10.56,6.96,16.88,6.96l0,0
			c6.35,0.02,12.45-2.51,16.92-7.02l1.2-1.18C128.54,344.91,139.68,340.34,151.3,340.35L151.3,340.35z M358.22,274.2L358.22,274.2z"
			/>
	</g>
</g>
</svg>
