<?xml version="1.0" encoding="utf-8"?>
<!-- Generator: Adobe Illustrator 26.3.1, SVG Export Plug-In . SVG Version: 6.00 Build 0)  -->
<svg version="1.1" id="Layer_1" xmlns="http://www.w3.org/2000/svg" xmlns:xlink="http://www.w3.org/1999/xlink" x="0px" y="0px"
	 viewBox="0 0 112.7 122.1" style="enable-background:new 0 0 112.7 122.1;" xml:space="preserve">
<g>
	<path d="M86.2,107.7c-0.2,4.2-3.8,7.5-8.1,7.3l-61.8,0c-4.2,0.2-7.8-3.1-8.1-7.3l0-93.4c0.2-4.2,3.8-7.5,8.1-7.3l61.8,0
		c4.2-0.2,7.8,3.1,8.1,7.3v8.7h8.3l0-8.7C94,5.8,86.7-0.9,78.1-0.5l-61.8,0C7.8-0.9,0.4,5.8,0,14.4l0,93.4
		c0.4,8.3,7.4,14.9,15.6,14.9c0.2,0,0.5,0,0.7,0l61.8,0c8.6,0.4,15.9-6.3,16.4-14.9V81.1h-8.3L86.2,107.7z"/>
	<path d="M55.1,43.9c-1.6-1.6-4.2-1.7-5.8-0.1L31.2,61.8c-0.8,0.8-1.3,1.8-1.3,3c0,1.2,0.5,2.2,1.3,3l18.1,18.1
		c0.8,0.8,1.8,1.2,2.9,1.2l0-0.5l0,0v0.5c1.1,0,2.1-0.4,2.9-1.2c1.6-1.6,1.6-4.2,0-5.8L44,68.9h26.4c2.3,0,4.1-1.9,4.1-4.1
		c0-2.3-1.9-4.1-4.1-4.1H44l11.1-11.1C56.6,48,56.6,45.5,55.1,43.9z"/>
	<path d="M112.7,51.2c0-1.2-0.5-2.3-1.4-3l-18-18c-1.6-1.4-3.9-1.4-5.5,0c-0.8,0.7-1.3,1.7-1.4,2.8c-0.1,1.1,0.3,2.2,1,3l11.1,11.1
		H72.3c-2.3,0-4.1,1.9-4.1,4.1c0,2.3,1.9,4.1,4.1,4.1h26.3L87.5,66.4c-0.8,0.8-1.2,1.8-1.2,2.9c0,1.1,0.4,2.1,1.2,2.9
		s1.8,1.2,2.9,1.2v0c1.1,0,2.1-0.4,2.9-1.2l18-18C112.2,53.5,112.7,52.4,112.7,51.2z"/>
</g>
</svg>
