<?xml version="1.0" encoding="utf-8"?>
<!-- Generator: Adobe Illustrator 26.2.1, SVG Export Plug-In . SVG Version: 6.00 Build 0)  -->
<svg version="1.1" id="Layer_1" xmlns="http://www.w3.org/2000/svg" xmlns:xlink="http://www.w3.org/1999/xlink" x="0px" y="0px"
	 viewBox="0 0 268.67 298.52" style="enable-background:new 0 0 268.67 298.52;" xml:space="preserve">
<style type="text/css">
	.st0{clip-path:url(#SVGID_00000060019270931929581670000005248380612541847946_);}
	.st1{fill:#060707;}
</style>
<g>
	<defs>
		<rect id="SVGID_1_" width="268.67" height="298.52"/>
	</defs>
	<clipPath id="SVGID_00000000917229042875399280000017122362515232640415_">
		<use xlink:href="#SVGID_1_"  style="overflow:visible;"/>
	</clipPath>
	<g id="Group_500" style="clip-path:url(#SVGID_00000000917229042875399280000017122362515232640415_);">
		<path id="Path_361" class="st1" d="M253.74,298.52c-8.24,0-14.93-6.68-14.93-14.93v-29.85c0-24.73-20.05-44.78-44.78-44.78H74.63
			c-24.73,0-44.78,20.05-44.78,44.78v29.85c0,8.24-6.68,14.93-14.93,14.93S0,291.84,0,283.59v-29.85
			c0.05-41.2,33.43-74.58,74.63-74.63h119.41c41.2,0.05,74.58,33.43,74.63,74.63v29.85C268.67,291.84,261.98,298.52,253.74,298.52"
			/>
		<path id="Path_362" class="st1" d="M134.33,149.26c-41.22,0-74.63-33.41-74.63-74.63S93.12,0,134.33,0s74.63,33.41,74.63,74.63
			C208.91,115.83,175.53,149.21,134.33,149.26 M134.33,29.85c-24.73,0-44.78,20.05-44.78,44.78s20.05,44.78,44.78,44.78
			s44.78-20.05,44.78-44.78S159.06,29.85,134.33,29.85"/>
	</g>
</g>
</svg>
